/* XPM */
static char *result[] = {
/* columns rows colors chars-per-pixel */
"25 25 14 1 ",
"  c black",
". c #101010",
"X c #202020",
"o c gray25",
"O c #505050",
"+ c #5F5F5F",
"@ c #606060",
"# c gray44",
"$ c #808080",
"% c #9F9F9F",
"& c #A0A0A0",
"* c #DFDFDF",
"= c #EFEFEF",
"- c white",
/* pixels */
"                         ",
"                         ",
"                         ",
"       .@@@@ @@@OX       ",
"      +=---- -----+      ",
"     .----=* *=---=.     ",
"     O----     ----O     ",
"     #----     ----#     ",
"     $----     ----$     ",
"     &----     ----%     ",
"     &----     ----%     ",
"     &----     ----%     ",
"     &----     ----%     ",
"     &----     ----%     ",
"     &----     ----%     ",
"     &----     ----%     ",
"     $----     ----$     ",
"     #----     ----#     ",
"     O----    .----O     ",
"     .=---=* *=----X     ",
"      #----- -----$      ",
"       XO@@@ @@@@o       ",
"                         ",
"                         ",
"                         "
};
