/* XPM */
static char *result[] = {
/* columns rows colors chars-per-pixel */
"26 25 13 1 ",
"  c black",
". c #101010",
"X c #202020",
"o c gray19",
"O c gray25",
"+ c #505050",
"@ c #606060",
"# c #9F9F9F",
"$ c gray69",
"% c gray75",
"& c #DFDFDF",
"* c white",
"= c None",
/* pixels */
"                          ",
"                          ",
"                          ",
"      +@@@OX@@@@X         ",
"      %***#@****$         ",
"      %***#@****%         ",
"      o@@@O@****%         ",
"           @****%         ",
"           @****%         ",
"           @****%         ",
"           @****%         ",
"           @****%         ",
"           @****%         ",
"           @****%         ",
"           @****%         ",
"           @****%         ",
"           @****%         ",
"           @****%         ",
"      @@@@O@****&@@@.     ",
"     X****#@********O     ",
"     X****#@********O     ",
"     .@@@@O.+@@@@@@@X     ",
"                          ",
"                          ",
"                          "
};
