/* XPM */
static char *result[] = {
/* columns rows colors chars-per-pixel */
"26 25 15 1 ",
"  c black",
". c #202020",
"X c gray19",
"o c gray25",
"O c #505050",
"+ c #606060",
"@ c gray44",
"# c #808080",
"$ c #AFAFAF",
"% c gray69",
"& c gray75",
"* c #DFDFDF",
"= c #EFEFEF",
"- c white",
"; c None",
/* pixels */
"                          ",
"                          ",
"                          ",
"      o++++++O O++o       ",
"     .-------* *---@      ",
"     @----=**& *---%      ",
"     #----o    *---&      ",
"     #----o    *---&      ",
"     #----o    *---&      ",
"     .++++.    *---&      ",
"               *---&      ",
"               =---&      ",
"     .&***** &*----&      ",
"     O------ *-----@      ",
"     +----$# @###@o       ",
"     +----+               ",
"     +----+               ",
"     +----+               ",
"     +----+X+++++++o      ",
"     +----+#-------&      ",
"     X----+#-------&      ",
"      o+++.X+++++++O      ",
"                          ",
"                          ",
"                          "
};
