/* XPM */
static char *result[] = {
/* columns rows colors chars-per-pixel */
"26 25 16 1 ",
"  c black",
". c #202020",
"X c gray19",
"o c gray25",
"O c #505050",
"+ c #606060",
"@ c gray44",
"# c #808080",
"$ c #909090",
"% c #9F9F9F",
"& c gray75",
"* c gray81",
"= c #DFDFDF",
"- c #EFEFEF",
"; c white",
": c None",
/* pixels */
"                          ",
"                          ",
"                          ",
"       o++++++X.+++.      ",
"      %;;;;;;;#+;;;;X     ",
"      =;;;;-==@+;;;;+     ",
"      =;;;&    +;;;;+     ",
"      =;;;&    +;;;;+     ",
"      =;;;&    +;;;;+     ",
"      O+++O    +;;;;+     ",
"               +;;;;o     ",
"           o&&*-;;;-      ",
"           +;;;;;;;;X     ",
"           X###&;;;;+     ",
"               +;;;;+     ",
"      O+++o    +;;;;+     ",
"      =;;;&    +;;;;+     ",
"      =;;;&    +;;;;+     ",
"      =;;;*    +;;;;+     ",
"      =;;;;-==@+;;;;+     ",
"      $;;;;;;;#+;;;;o     ",
"       O++++++X.+++o      ",
"                          ",
"                          ",
"                          "
};
