/* XPM */
static char *result[] = {
/* columns rows colors chars-per-pixel */
"26 25 14 1 ",
"  c black",
". c #101010",
"X c #202020",
"o c gray25",
"O c #505050",
"+ c #606060",
"@ c #909090",
"# c #9F9F9F",
"$ c #AFAFAF",
"% c gray75",
"& c #DFDFDF",
"* c #EFEFEF",
"= c white",
"- c None",
/* pixels */
"                          ",
"                          ",
"                          ",
"      o++o   O+++X        ",
"     o===%   &===@        ",
"     +===%   &===#        ",
"     +===%   &===#        ",
"     +===%   &===#        ",
"     +===%   &===#        ",
"     +===%   &===#        ",
"     +===%   &===#        ",
"     +===*Oo.&===$oo      ",
"     +======X&=====&      ",
"     X&=====X&=====&      ",
"             &===#        ",
"             &===#        ",
"             &===#        ",
"             &===#        ",
"             &===#        ",
"             &===#        ",
"             &===#        ",
"             X+++o        ",
"                          ",
"                          ",
"                          "
};
