/* XPM */
static char *result[] = {
/* columns rows colors chars-per-pixel */
"26 25 18 1 ",
"  c black",
". c #101010",
"X c #202020",
"o c gray19",
"O c gray25",
"+ c #505050",
"@ c #606060",
"# c gray44",
"$ c #808080",
"% c #909090",
"& c #9F9F9F",
"* c #A0A0A0",
"= c #AFAFAF",
"- c gray75",
"; c gray81",
": c #DFDFDF",
"> c white",
", c None",
/* pixels */
"                          ",
"                          ",
"                          ",
"       O@@@.O@@@@@@@o     ",
"      O>>>>O*>>>>>>>$     ",
"      @>>>>O*>>>>>>>$     ",
"      @>>>>OO@@@@@@@X     ",
"      @>>>>O              ",
"      @>>>>O              ",
"      @>>>>O              ",
"      @>>>>%O.@@@@O.      ",
"      @>>>>>-X>>>>>:.     ",
"      .;>>>>-X>>>>>>#     ",
"               o>>>>$     ",
"               X>>>>@     ",
"      O@@@O    X>>>>@     ",
"      ->>>-    X>>>>@     ",
"      ->>>-    X>>>>@     ",
"      ->>>;    X>>>>@     ",
"      =>>>>>>>&X>>>>+     ",
"      #>>>>>>>&X>>>:X     ",
"       O@@@@@@O.@@@.      ",
"                          ",
"                          ",
"                          "
};
