/* XPM */
static char *result[] = {
/* columns rows colors chars-per-pixel */
"25 25 12 1 ",
"  c black",
". c #101010",
"X c #202020",
"o c gray19",
"O c gray25",
"+ c #505050",
"@ c #606060",
"# c #808080",
"$ c #9F9F9F",
"% c #A0A0A0",
"& c #AFAFAF",
"* c white",
/* pixels */
"                         ",
"                         ",
"                         ",
"     O@@@@@X@@@+         ",
"     %*****O****@        ",
"     %*****O****@        ",
"     X@@@@@o****@        ",
"           X****@        ",
"           X****@        ",
"           X****@        ",
"      o@@@@o****$@@o     ",
"      #****O*******$     ",
"      #****O*******$     ",
"      X####o****&##+     ",
"           X****@        ",
"           X****@        ",
"           X****@        ",
"           X****@        ",
"           X****@        ",
"           X****@        ",
"           .****@        ",
"            +@@@X        ",
"                         ",
"                         ",
"                         "
};
