/* XPM */
static char *result[] = {
/* columns rows colors chars-per-pixel */
"26 25 21 1 ",
"  c black",
". c #101010",
"X c #202020",
"o c gray19",
"O c gray25",
"+ c #505050",
"@ c #606060",
"# c #6F6F6F",
"$ c gray44",
"% c gray50",
"& c #808080",
"* c #909090",
"= c #9F9F9F",
"- c #A0A0A0",
"; c #AFAFAF",
": c gray75",
"> c gray81",
", c #DFDFDF",
"< c #EFEFEF",
"1 c white",
"2 c black",
/* pixels */
"2                         ",
"2                         ",
"2                         ",
"2      O@@O @@@@@@+.      ",
"2     ;111: 1111111,      ",
"2     1111: ,,,11111o     ",
"2     1111:    -1111O     ",
"2     1111:    -1111O     ",
"2     1111:    -1111O     ",
"2     1111:    -1111O     ",
"2     1111<;+  &:::*      ",
"2     :11111&             ",
"2     X$====+@1111>%      ",
"2            @111111.     ",
"2     #,,,,+ X@>1111O     ",
"2     11111@   -1111O     ",
"2    X11111@   -1111O     ",
"2    X11111@   -1111O     ",
"2    X11111@   -1111O     ",
"2     111111,,o-1111o     ",
"2     :1111111O-111,      ",
"2      +@@@@@@XO@@@.      ",
"2                         ",
"2                         ",
"2                         "
};
