/* XPM */
static char *result[] = {
/* columns rows colors chars-per-pixel */
"26 25 18 1 ",
"  c black",
". c #101010",
"X c #202020",
"o c gray25",
"O c #505050",
"+ c #606060",
"@ c gray44",
"# c #808080",
"$ c gray56",
"% c #909090",
"& c #9F9F9F",
"* c #AFAFAF",
"= c gray69",
"- c gray75",
"; c #DFDFDF",
": c #EFEFEF",
"> c white",
", c black",
/* pixels */
"                         ,",
"                         ,",
"                         ,",
"      .++O O++++++o      ,",
"     X:>>; ;>>>>>>>@     ,",
"     #>>>; ;>>>>>>>=     ,",
"     #>>>;     :>>>-     ,",
"     #>>>;     ;>>>-     ,",
"     #>>>;     ;>>>-     ,",
"     #>>>;     ;>>>-     ,",
"     #>>>;     ;>>>-     ,",
"     #>>>>*&&$ ;>>>-     ,",
"     o>>>>>>>; ;>>>-     ,",
"      O%&&&&&$ ;>>>-     ,",
"               ;>>>-     ,",
"               ;>>>-     ,",
"     +>>>>o    ;>>>-     ,",
"     #>>>>o    ;>>>-     ,",
"     #>>>>O    ;>>>-     ,",
"     +>>>>>>>; ;>>>-     ,",
"     .:>>>>>>; ;>>>-     ,",
"      XO+++++O O+++.     ,",
"                         ,",
"                         ,",
"                         ,"
};
