/* XPM */
static char *result[] = {
/* columns rows colors chars-per-pixel */
"25 25 25 1 ",
"  c black",
". c #050D08",
"X c #0A1A10",
"o c #0B1A10",
"O c #143420",
"+ c #153420",
"@ c #194127",
"# c #1A4127",
"$ c #194128",
"% c #1F4D2F",
"& c #1E4E2F",
"* c #245A37",
"= c #235A38",
"- c #29673F",
"; c #2D7447",
": c #2E7447",
"> c #33804F",
", c #388D57",
"< c #3D9A5F",
"1 c #42A766",
"2 c #47B46E",
"3 c #47B56E",
"4 c #4CC176",
"5 c #4CC177",
"6 c #51CE7E",
/* pixels */
"                         ",
"                         ",
"                         ",
"                         ",
"           X66o          ",
"           X66o          ",
"           X66o          ",
"      X,262X666641*      ",
"      16662X66:6666#     ",
"      66662X66o6666%     ",
"      66662.>>.:>>>X     ",
"      56662              ",
"      =6666422 <22<@     ",
"       O-:>>>> 36664     ",
"               36666     ",
"      1666% ++.36666     ",
"      3666%X66o36666     ",
"      <6666666o3666,     ",
"       $-:>,66o;>-&.     ",
"           X66o          ",
"           X66o          ",
"           X66o          ",
"            XX           ",
"                         ",
"                         "
};
