/* XPM */
static char *result[] = {
/* columns rows colors chars-per-pixel */
"25 25 22 1 ",
"  c black",
". c #050D08",
"X c #0A1A10",
"o c #143420",
"O c #1A4027",
"+ c #1A4127",
"@ c #194128",
"# c #1A4128",
"$ c #1E4E2F",
"% c #1F4E2F",
"& c #1F4D30",
"* c #245A37",
"= c #235A38",
"- c #245A38",
"; c #28673F",
": c #29673F",
"> c #33804F",
", c #33814F",
"< c #47B46E",
"1 c #4CC176",
"2 c #4CC177",
"3 c #51CE7E",
/* pixels */
"                         ",
"                         ",
"                         ",
"       .%%%% %%%+X       ",
"      &13333 33333&      ",
"     .33332< <23331.     ",
"     O3333     3333#     ",
"     -3333     3333*     ",
"     :3333     3333:     ",
"     ,3333     3333>     ",
"     ,3333     3333>     ",
"     ,3333     3333>     ",
"     ,3333     3333>     ",
"     ,3333     3333>     ",
"     ,3333     3333>     ",
"     ,3333     3333>     ",
"     :3333     3333:     ",
"     -3333     3333*     ",
"     O3333    .3333#     ",
"     .23331< <13333X     ",
"      =33333 33333;      ",
"       X@$$$ $$$$o       ",
"                         ",
"                         ",
"                         "
};
