/* XPM */
static char *result[] = {
/* columns rows colors chars-per-pixel */
"26 25 15 1 ",
"  c black",
". c #050D08",
"X c #0A1A10",
"o c #0F2718",
"O c #143420",
"+ c #194128",
"@ c #1A4128",
"# c #1E4E2F",
"$ c #1F4E2F",
"% c #33804F",
"& c #388E57",
"* c #3D9A5F",
"= c #47B46F",
"- c #51CE7E",
"; c None",
/* pixels */
"                          ",
"                          ",
"                          ",
"      @$$$OX$$$$X         ",
"      *---%#----&         ",
"      *---%#----*         ",
"      o###O#----*         ",
"           #----*         ",
"           #----*         ",
"           #----*         ",
"           #----*         ",
"           #----*         ",
"           #----*         ",
"           #----*         ",
"           #----*         ",
"           #----*         ",
"           #----*         ",
"           #----*         ",
"      $$$$O#----=$$$.     ",
"     X----%#--------O     ",
"     X----%#--------O     ",
"     .####O.+#######X     ",
"                          ",
"                          ",
"                          "
};
