/* XPM */
static char *result[] = {
/* columns rows colors chars-per-pixel */
"26 25 24 1 ",
"  c black",
". c #0A1A10",
"X c #0F2718",
"o c #143420",
"O c #153420",
"+ c #194127",
"@ c #1A4027",
"# c #1A4127",
"$ c #1A4128",
"% c #1F4D2F",
"& c #1E4E2F",
"* c #1F4E2F",
"= c #245A37",
"- c #235B38",
"; c #245A38",
": c #29673F",
"> c #388D57",
", c #388E57",
"< c #3D9A5F",
"1 c #47B46E",
"2 c #47B56E",
"3 c #4CC177",
"4 c #51CE7E",
"5 c black",
/* pixels */
"                         5",
"                         5",
"                         5",
"      O******# $**O      5",
"     .44444441 2444=     5",
"     ;4444311< 2444,     5",
"     :4444o    2444<     5",
"     :4444o    2444<     5",
"     :4444o    2444<     5",
"     .&&&&.    2444<     5",
"               2444<     5",
"               3444<     5",
"     .<11111 <14444<     5",
"     @444444 244444-     5",
"     &4444>: ;:::;o      5",
"     &4444%              5",
"     &4444%              5",
"     &4444%              5",
"     &4444%X*******o     5",
"     &4444%:4444444<     5",
"     X4444%:4444444<     5",
"      o&&&.X&&&&&&&+     5",
"                         5",
"                         5",
"                         5"
};
