/* XPM */
static char *result[] = {
/* columns rows colors chars-per-pixel */
"26 25 26 1 ",
"  c black",
". c #0A1A10",
"X c #0F2718",
"o c #15331F",
"O c #143420",
"+ c #153420",
"@ c #194127",
"# c #194128",
"$ c #1A4128",
"% c #1F4D2F",
"& c #1E4E2F",
"* c #1F4E2F",
"= c #245A37",
"- c #245A38",
"; c #29673F",
": c #2E7447",
"> c #33814F",
", c #3D9A5F",
"< c #42A766",
"1 c #42A767",
"2 c #47B46E",
"3 c #47B56E",
"4 c #4CC176",
"5 c #4CC177",
"6 c #51CE7E",
"7 c black",
/* pixels */
"7                         ",
"7                         ",
"7                         ",
"7      +******X.***.      ",
"7     >6666666;&6666X     ",
"7     36666522-&6666%     ",
"7     3666,    &6666%     ",
"7     3666,    &6666%     ",
"7     3666,    &6666%     ",
"7     #&&&@    &6666%     ",
"7              &6666O     ",
"7          o,,<46664      ",
"7          &66666666X     ",
"7          X;;;,6666%     ",
"7              &6666%     ",
"7     $***O    &6666%     ",
"7     3666,    &6666%     ",
"7     3666,    &6666%     ",
"7     36661    &6666%     ",
"7     36666422=&6666%     ",
"7     :6666666;&6666O     ",
"7      #&&&&&&X.&&&O      ",
"7                         ",
"7                         ",
"7                         "
};
