/* XPM */
static char *result[] = {
/* columns rows colors chars-per-pixel */
"26 25 20 1 ",
"  c black",
". c #050D08",
"X c #0A1A10",
"o c #0B1A10",
"O c #143420",
"+ c #153420",
"@ c #1A4127",
"# c #1A4128",
"$ c #1E4E2F",
"% c #1F4E2F",
"& c #2E7447",
"* c #33804F",
"= c #388D57",
"- c #3D9A5F",
"; c #47B46E",
": c #47B56E",
"> c #47B46F",
", c #4CC176",
"< c #51CE7E",
"1 c black",
/* pixels */
"                         1",
"                         1",
"                         1",
"      +%%O   #%%%X       1",
"     +<<<-   :<<<&       1",
"     $<<<-   :<<<*       1",
"     $<<<-   :<<<*       1",
"     $<<<-   :<<<*       1",
"     $<<<-   :<<<*       1",
"     $<<<-   :<<<*       1",
"     $<<<-   :<<<*       1",
"     $<<<,@+.:<<<=++     1",
"     $<<<<<<o:<<<<<;     1",
"     X><<<<<o:<<<<<;     1",
"             :<<<*       1",
"             :<<<*       1",
"             :<<<*       1",
"             :<<<*       1",
"             :<<<*       1",
"             :<<<*       1",
"             :<<<*       1",
"             X$$$O       1",
"                         1",
"                         1",
"                         1"
};
