/* XPM */
static char *result[] = {
/* columns rows colors chars-per-pixel */
"26 25 23 1 ",
"  c black",
". c #050D08",
"X c #0A1A10",
"o c #0F2718",
"O c #143420",
"+ c #153420",
"@ c #1A4128",
"# c #1F4D2F",
"$ c #1E4E2F",
"% c #1F4E2F",
"& c #245A37",
"* c #235A38",
"= c #29673F",
"- c #2E7447",
"; c #33804F",
": c #33814F",
"> c #388D57",
", c #3D9A5F",
"< c #42A767",
"1 c #47B46E",
"2 c #47B46F",
"3 c #51CE7E",
"4 c black",
/* pixels */
"4                         ",
"4                         ",
"4                         ",
"4      +%%%.O%%%%%%%o     ",
"4     +3333O:3333333=     ",
"4     $3333O:3333333=     ",
"4     $3333OO$$$$$$$X     ",
"4     $3333O              ",
"4     $3333O              ",
"4     $3333O              ",
"4     $3333-O.%%%%+.      ",
"4     $33333,X333331.     ",
"4     .<3333,X333333&     ",
"4              o3333=     ",
"4              X3333#     ",
"4     +%%%O    X3333#     ",
"4     ,333,    X3333#     ",
"4     ,333,    X3333#     ",
"4     ,333<    X3333#     ",
"4     >3333333;X3333@     ",
"4     *3333333;X3332X     ",
"4      O$$$$$$O.$$$.      ",
"4                         ",
"4                         ",
"4                         "
};
