/* XPM */
static char *result[] = {
/* columns rows colors chars-per-pixel */
"26 25 24 1 ",
"  c black",
". c #050D08",
"X c #0A1A10",
"o c #0B1A10",
"O c #0F2718",
"+ c #15331F",
"@ c #143420",
"# c #153420",
"$ c #1A4127",
"% c #194128",
"& c #1F4D2F",
"* c #1E4E2F",
"= c #1F4E2F",
"- c #245A37",
"; c #28673F",
": c #29673F",
"> c #2E7447",
", c #33804F",
"< c #3D9A5F",
"1 c #42A767",
"2 c #47B46E",
"3 c #47B46F",
"4 c #51CE7E",
"5 c black",
/* pixels */
"                         5",
"                         5",
"                         5",
"      #===XO======$.     5",
"     O4444&:4444444<     5",
"     #4444&:44444444     5",
"     #4444&    >4444o    5",
"     #4444&    :4444o    5",
"     #4444&    :4444.    5",
"     #4444&    O***@     5",
"     #4444&              5",
"     #4444&+,,,,,,&      5",
"     #4444&*4444444:     5",
"     #4444&%<<<34442     5",
"     #4444&    :4442     5",
"     #4444&    :4442     5",
"     #4444&    :4442     5",
"     #4444&    :4442     5",
"     #4444-    :4442     5",
"     O44444222$:4441     5",
"      34444444&:444;     5",
"      X%******XO**@      5",
"                         5",
"                         5",
"                         5"
};
