/* XPM */
static char *result[] = {
/* columns rows colors chars-per-pixel */
"25 25 17 1 ",
"  c black",
". c #050D08",
"X c #0A1A10",
"o c #0F2718",
"O c #153320",
"+ c #143420",
"@ c #194127",
"# c #1A4127",
"$ c #194128",
"% c #1F4D2F",
"& c #1E4E2F",
"* c #1F4E2F",
"= c #29673F",
"- c #33804F",
"; c #33814F",
": c #388D57",
"> c #51CE7E",
/* pixels */
"                         ",
"                         ",
"                         ",
"     +*****X***#         ",
"     ;>>>>>O>>>>%        ",
"     ;>>>>>O>>>>%        ",
"     X&&&&&o>>>>%        ",
"           X>>>>%        ",
"           X>>>>%        ",
"           X>>>>%        ",
"      o****o>>>>-**o     ",
"      =>>>>O>>>>>>>-     ",
"      =>>>>O>>>>>>>-     ",
"      X====o>>>>:==@     ",
"           X>>>>%        ",
"           X>>>>%        ",
"           X>>>>%        ",
"           X>>>>%        ",
"           X>>>>%        ",
"           X>>>>%        ",
"           .>>>>%        ",
"            $&&&X        ",
"                         ",
"                         ",
"                         "
};
