/* XPM */
static char *result[] = {
/* columns rows colors chars-per-pixel */
"26 25 27 1 ",
"  c black",
". c #050D08",
"X c #0A1A10",
"o c #0F2718",
"O c #143420",
"+ c #153420",
"@ c #194127",
"# c #1A4127",
"$ c #194128",
"% c #1F4D2F",
"& c #1E4E2F",
"* c #1F4E2F",
"= c #245A38",
"- c #29673F",
"; c #296740",
": c #2E7447",
"> c #33804F",
", c #33814F",
"< c #388D57",
"1 c #3D9A5F",
"2 c #42A766",
"3 c #42A767",
"4 c #47B46E",
"5 c #47B46F",
"6 c #4CC176",
"7 c #51CE7E",
"8 c black",
/* pixels */
"8                         ",
"8                         ",
"8                         ",
"8      +**O ******#.      ",
"8     <7771 77777774      ",
"8     77771 44477777o     ",
"8     77771    ,7777O     ",
"8     77771    ,7777O     ",
"8     77771    ,7777O     ",
"8     77771    ,7777O     ",
"8     77776<@  ;111:      ",
"8     177777-             ",
"8     X=>>>>$&77772-      ",
"8            &777777.     ",
"8     =4444# X&37777O     ",
"8     77777%   ,7777O     ",
"8    X77777%   ,7777O     ",
"8    X77777%   ,7777O     ",
"8    X77777%   ,7777O     ",
"8     77777744o,7777o     ",
"8     17777777O,7775      ",
"8      $&&&&&&XO&&&.      ",
"8                         ",
"8                         ",
"8                         "
};
