/* XPM */
static char *result[] = {
/* columns rows colors chars-per-pixel */
"26 25 24 1 ",
"  c black",
". c #050D08",
"X c #0A1A10",
"o c #143420",
"O c #153420",
"+ c #194127",
"@ c #1A4127",
"# c #194128",
"$ c #1A4128",
"% c #1E4E2F",
"& c #1F4E2F",
"* c #245A37",
"= c #29673F",
"- c #2E7447",
"; c #33804F",
": c #388D57",
"> c #388E57",
", c #3D9A5F",
"< c #47B46E",
"1 c #47B56E",
"2 c #4CC176",
"3 c #4CC177",
"4 c #51CE7E",
"5 c black",
/* pixels */
"                         5",
"                         5",
"                         5",
"      .&&@ $&&&&&&O      5",
"     X244< 14444444*     5",
"     =444< 14444444>     5",
"     =444<     3444,     5",
"     =444<     1444,     5",
"     =444<     1444,     5",
"     =444<     1444,     5",
"     =444<     1444,     5",
"     =4444:;;- 1444,     5",
"     o4444444< 1444,     5",
"      #-;;;;;- 1444,     5",
"               1444,     5",
"               1444,     5",
"     %4444o    1444,     5",
"     =4444o    1444,     5",
"     =4444$    1444,     5",
"     %4444444< 1444,     5",
"     .3444444< 1444,     5",
"      X#%%%%%+ #%%%.     5",
"                         5",
"                         5",
"                         5"
};
