/* XPM */
static char *_064295385c443858558d06344b2acaaYKOxLJ4nGsV4z7TT[] = {
/* columns rows colors chars-per-pixel */
"16 16 2 1 ",
"  c None",
". c white",
/* pixels */
"                ",
"       ..       ",
"       ..       ",
"      ....      ",
"      ....      ",
"     ......     ",
"     ......     ",
"    ........    ",
"    ........    ",
"   ..........   ",
"   ..........   ",
"  ............  ",
"  ............  ",
" .....    ..... ",
" ...         .. ",
"                "
};
