/* XPM */
static char *Door_Sliding1714803506[] = {
/* columns rows colors chars-per-pixel */
"128 128 91 1 ",
"  c #070C15",
". c #0A0E17",
"X c #0B0F18",
"o c #0E1219",
"O c #13171D",
"+ c #15191F",
"@ c #171C21",
"# c #181D23",
"$ c #1B2126",
"% c #1E252A",
"& c #20272C",
"* c #232B2E",
"= c #252D31",
"- c #273032",
"; c #2E3331",
": c #2F3836",
"> c #2F3A3B",
", c #333937",
"< c #333B3B",
"1 c #37413E",
"2 c #3A423E",
"3 c #374344",
"4 c #3B4543",
"5 c #3F4845",
"6 c #404945",
"7 c #454D49",
"8 c #46504A",
"9 c #4A524D",
"0 c #4D5650",
"q c #4F5A52",
"w c #545D55",
"e c #595F51",
"r c #555F59",
"t c #566056",
"y c #5C6356",
"u c #566059",
"i c #5E665A",
"p c #5F685C",
"a c #60675A",
"s c #646A5C",
"d c #686D5E",
"f c #6B705F",
"g c #71745E",
"h c #5F6860",
"j c #666D61",
"k c #686D60",
"l c #6C7162",
"z c #6D746A",
"x c #717565",
"c c #767966",
"v c #797A67",
"b c #727669",
"n c #767969",
"m c #7B7D6C",
"M c #777C71",
"N c #7E7F70",
"B c #7E826D",
"V c #7D8072",
"C c #81836E",
"Z c #838473",
"A c #878876",
"S c #8A8977",
"D c #878978",
"F c #8C8C7A",
"G c #908E7C",
"H c #8F907C",
"J c #92927E",
"K c #98937E",
"L c #969482",
"P c #9A9684",
"I c #9D9A86",
"U c #9E9B89",
"Y c #A09B87",
"T c #A19C89",
"R c #A3A18E",
"E c #A8A38D",
"W c #A6A591",
"Q c #AAA794",
"! c #ADAA96",
"~ c #AEAB98",
"^ c #B2AE97",
"/ c #B2AE9B",
"( c #B9AF99",
") c #B6B29E",
"_ c #B9B39E",
"` c #B6B2A1",
"' c #BAB5A1",
"] c #BEB8A4",
"[ c #C0B7A5",
"{ c #C1BBA6",
"} c #C3BCAA",
/* pixels */
"dsjdssjspajyapppadapsdssajdsspyyaaddspssssdspppspsppspppppppapppppadsppppaasppypyeyaapaajaapaaytpapdpyaaapaaaaipiiyyeayaaaaaayyy",
"jdsddjsdaaappaajajaapdjasppsppyyppajaassppssspppppppdssspippaapppappapspaapaaityaaayaaasajappaapapppppappasayapipaayapaaappapyyi",
"jjsskjkkpaddaajapjkaasspkdsjspsaaasjkjkjjsjsjpppdjpssjjsdjaaaasajaaasskssdpaaiaasssyajdaddjjpaapypaassaaaassaaappaaspppjdsppaaaa",
"kljllklkdlkjldljdjdkaajdsdjkdddddjjdjkjdsjkkjjsjsskjkdjkjlkjjdjjjjkkkjdsdsddddddsdddkkjkjjdjdpdsddjjdssdssddddddddsfsjjjddspddaa",
"lllklllllkllllxklldydfdsdllllllllllllllllllljlllllllzllllllllkdllllllflfddfflddlkkllkllkddsddsdjljllddjfdldjlkjjddfjjljdsfdfdssd",
"llxzlllllllxxlxlllzadllllllfllllllllllllzljllzllllllfljllllllllllllxlllfxladllllxkxkllllljdddffllklfffllkllllkdj__')'_'`''''_'__",
"xxxxxxxxlxxxxbxxzxzxlfllzxxxzbzzxxzxzxxxxxxxxxxxlllxllxzxxzxzxxxzbxxzxzxxksfxllfxkllbbxzlllfdklflllxllllxxllllkiWRRRRRRRRRRRRRRR",
"nxbnxbxldxznbbcbnbcxxzxxxcbxbbbxzccbbbbxxxxxxxbzzxzlxxxcxxcbbbzbzncbzxbxxcxlxxzzbxbbbxxlllzbldlzczxxbxxlzbbbbxxrWRWRWRRWRRRWRWRW",
"nnnbbnbxxxbbnnnbnmbbnnnbnmnnnnnnbnnnnnnbbcxcbnnncnxxbnnnnnnbnnnnnnnnnnnbbnnnnnbxccxbvxxxxcbnllbncbbcbnbcnnnnnnniRRRWRWRRRWWWRWRR",
"BmmBmnmmnmmmmncnmmnmmmmnmBmmmMmmmmmmBmBmnnvnmmnmnmmnmmmmmmmBmmmmmmMmNNnmmnmmmmnnvvvNnnnvnmnnnnnnnnmBnnnnmnmnmnnaQWWWQWQWWWWWWWWW",
"mVVBNmmNNmNNmmnmNmNmmmMmMBZZmVZZVZNNNVZZNmMZNmmNVBBMmmBVVmMBmVNNVmZNNZNNNmNmmNmmNNnNmNNNmmmnmNMBmBmVmVMBmmNMmMmj9990970088888899",
"AZAVAZZVZZAZVZZZZZZNmNZNVAZZAAVAAZZAVAZZZAAZAZAZVVVBmmZVNBMNVZZVZmZAZNZAZAZZVZVNNNNZZZZZZZZVZZVZVZVZAVZVVZZAVZZk7<<2<<<<11111111",
"ADAADAAAZDDAADDDDDDZNZZAZAADADDDDDAADDDDZZADAAAAZAZABZZZAZVAAAZZAZZADAZZAZAZAAZZZZZZZAZZZAZZZZAADAZDDDZDDDDAAAZNzkkkkkkkjjjjsskl",
"FDDFDDDDSFDFFDFFFFFDDDZDSFDDDFFFDFFFFDFFDFFSSSSDAAAVZSDDDZDDDADAZZAASDFSSSDDZAZZSSZSZADDDDDZDFDDDDFDDDDDFDFFDDFZAAZZAZFZDDDDFFFD",
"FLDFGFGFGFFFGFGFLFGFFLFDFFFLFFGGGFFFGFFFFFGGFFGGFFFDDAFFDDFDFDFFFDDFFGFFFGFFFDFFFGSSFFDFDDSFFFFFHFFDFDFFGFFFFGFDFDFFFFDFFFFFAFHF",
"LHLLLJLLLGLFGLLLLGLLFLLFFLLLLLLLLFGGJJFFLLFLJGGGHLLLLLLFGLLLLLLJGGGGLGGGAGFGGFGGGFFFFGGGGSLLFHLJLHLLLLLLJLFLLFLFGGFGDGFGGGLHFFHH",
"oOoooOooo@OO@Oo@o@OOOOOOoOOOo+OOOOooOOOOOOOO+OOOo@o@Oo@ooOOOOoOOO  .                          .                                 ",
"o}}}}}}}]}]]]}]]}[['[[[{][}}}}]]}_((]_{[}{{{[]_}}}}}]]}]]}}{{}['#;2666666226666666666646555555565565555566665666666666666666666X",
"oUUUTUUURUIUUUUIUUTPPUIUUUIUUUUUUPSKKPIPUYPUIUPIUUUUPUUIUIUUUUUzO6rrrwwwuwwrrrrrwrrrrrrrtuuuuuttuuuuuuutrrrrwwrrrrrrrerrwrrrrrrX",
"oRRRRRRRRRRRRRRUTTTUURUUUUURRRTRRYYPYYUUUUUUUUUTIWUWUTRURRRURRRnXwNNNNNmVmNmNmCmmmNZZmmCVVAVVVMVMNVVVZVVmZZNmmNNNNmNmNNNNmNNmmmO",
"oRRWERUUURUUURURUUUUUUUUUUUUUUWUUPPUUUUUUUIUYUUUUUUUUUUUUUREWRWnojPLPPPLLPLLPLLPLPPLLPPPILPPULLLLLPPPILILLIPLPLLLLLKLLPLLLLLGLP+",
"O!W!QSAADDDDDVVZBZAAAZZVDZZZAAAAZVBmVDVVZABmZCSCZDDZAAZAZAR!WWWMozWWRLZVVNcmVNZZVZZVAZVVVVVVVVVVZZZVVZVVVZVVZNZMmNmmNNNNNMLRTTT+",
"o!!!!z$@OOOOOOOOOOOOOOOOOOOOo@OOOOOO@OOOOOOOOOOOOO@o@ooOOO!W!!!ZozQQQWO+OOOO@OOO@OOOOO@@@Oo@@OOOO@@OOOOOOO@OOOOO+OOO+O+OOORQQWW@",
"O~!!!z$oOOOOOOOOOOOoOOOOO@OOOO@oOOOO@oOOOOOO+OOOO@o@OOOOOO~~~~~VOzQ!~!OOOOOOOOOOo@OOOO@ooO@OOOOOOoOOOOOOOOOOOOOOOOO+OOOOOOQQQWW@",
"O/~~)n$OOOO++O+OOOOOOO+OOOOOOO+O+O+OOOO+O@OOOO@O@o@OO@OO@O~~/~/DOz~///OOOOOO@@OO@OOOO+OO+O@OOOO+OOO@OOOO@OOO@O@OOOOOOO@OOOQ/~Q~+",
"o)//)b$OO+O+#+##@@@@@@@#@@##@@@@+#@#@#+#@@@#@@@#@@@#@@@OOO//~/~DOM////OOOOO###@@@@@@#@@@@@@@###+@@@@@@@@#@@@@@@@####@@@OOO~~Q/Q@",
"@`)//c$OO+++#####%#$####@###########$#####%#@##$####@@@O@o/////D@z`///OOOO#######$#$######@#####$###$#####$$@@#$#####@@OOO////~@",
"o``))m$OO+$$##$$$$$$$%#%#$$$$$$$$$$$$$$$$$#%#$$$$$$$#@@OO@__`)`LOM////OOOO####%#$$$$$$$$%#$$$$$$$$$$$$$$$$$$#%#%$$$##@@O+O/////@",
"O]`')m$OO+++$$$$$#%$$$%#$$$$$$$$$$%$%$$%$$%$$$$$#%#%#@@+OO(```)JOM/```OOOO@@###%$$$%$$$$%##%#$$$$%$%$$%$$$%$%#&#$$$$###OOO`/___#",
"O```'m$O+###$$$$%%$$$%%%%$%%$%$$%%%$#%%%$$$$%$%$%#&###@OOO`''``J@M``'`OOO#@#%#%#$$$%$$%%%%%%$%$%%%%%$$%%$$%##&##$$%$###OOO`````@",
"O_''_m$OO+##$$$&%%&&%%%%&%%%%%&&%%%%%%%%%%&&&$&%&&#%##@+OO`'''`JOM``''@OO#@###&&%%%%%%&%%%%%&&%%%%%%%%%$%%$&&&&&&&%####OOO`'```#",
"O_`__m$OO+##$$$%%%%&%%&%&%&%%%%&%%%&%%%%%%%&&&$&%&&##@@OO+''```JoM```'OOO#@#%##*&%%*&%%%%%%%%%%%%%%%%%%%&&&&&&&&$&%$###OOO'''`_#",
"O``'`N$OO+#+&#&&%%%%%%%%%%%%%%%%%%%%%%%&%%%%%%%%%%%%@@#OOO````]JOM````OO+@@#$%%%%%%%%%%%%%%%%%%%%%%%%%%%%%%%%&%&%%%$##@O+O`````+",
"O`'`'n$O+++$$&+&%%=%%%&%*%%*&&%&&%%*%&&%%&&%&%*%%%$$###OOO`````GOn)/``OO+@@###%%%*%%*%%%*%*%%*%%&%%%&&%&%&&&&&%&%%$$##@OOO`````+",
"O)___c#O++#+&#&&*%%%*%&%*%&&&&&%&&&&&&&%&&&&&&%%%%%$$@@OOo```))FOM/)``OO+@#@$%%%%%%*%*%=%%%**%%%%&&&&&&&%&&&%&&%&&$$$##oOO`````@",
"O_//^v&++#+$+&+&%%%*=************************&&%%%%$$#@+O@)////Som//~/+++@@@#%$%%%%**=%-********=***&********&&%%&$$$##+OO~`///@",
"O////x#++++#&#&&%*%=************&************&&%%%%$%##O@o/////A@z`~~~+o+@@@$%%%%%****%%*************&*******&&%%%%$$@@+++/////@",
"O///!x#+++$##&&&%*%=%**********&****&*****&**&&%%%%####+OO^////Zon~~~~+++@@@#%%%%*%=**-**********************&&%%%$$$@@+O+/!!!!+",
"O!^^!k#++#+$$&&&%%***=*=**=***==**==**********&%%%#%##@OOO~/!Q/Z@l~~~~OO+@@@$%&%%%**********-*-**=====********&%%%$$$$@OOO!!!!!+",
"OWQQQd$++#++$+&$%%*****==*=*=*====*========***&%%%%%##@+@oWQQQQmozW!WWOO+@@$$$%&%%*****=-=*-****==*=**=*=*****%&&%%$#@@OOOW!WWW+",
"OWERTa$O+++#$%&%%*=**=*=------;*=---=--===****%%&%%$$#@+O+WWWWWn@jWWRWOO+#+#$$%%*&******--------=----=--===***&%%%%$$##+OOWRRRRO",
"ORRRYs+O+###$%%%&%%***==------*;---=----*=***%&%&%$$##@+++RWRRRx@jURUT+O+###$%%%%&&*****--------==-===--==***&&&%%$$##++OORIRRRO",
"ORUUYy$O++##$$%&%*&%&*==***-****===**====****&&&%%$$###@OoIUIIIl@jUUPLO++@+$$$%%%%&***==*-***-**======*=*****&&%%%$$##++OOIPIIP+",
"OIIPPt$O@###$$$%%%&=**%-****-*;*===*===*=***&&&%%%%$##@@++IIIIIjojILPLOO@+$#$%%%%*&&***=*;****-*====**===***&&$%*%&$##$++OPPPPJO",
"OPPHKw$O@####$$%%%%%%=**-*********=**=*****&&%%&%%$$@@@@OOLLKKPiOaKKKGOO@@@@#$$&%%&&&**&********&=*==******&&%&%%$$$##++OOHKJJK+",
"OJKKJw$O####$$$%%%%%%%%******************&&&%%%%$$$$$@$@+OLHJJJuOyKGGSO+@@#@$$%$%%%%%&&*************&****&&&%%&$$%$$$#+$++HHJJHO",
"OJKJJ9$+@@@##$$$$$$%%*%*%*%%*%*%&&&&&&&&&&%&%%%$%$$#@@@@OOHHJJJw@uGSSSO+@####$$$%$$%%&&&*%%*%**%&&&&&&&&&&%%%$&$$$$#$++$OOSFFFHo",
"OFFFF7$+@@@###$$$$%%%%%%*%%**%%%&&&&&&&&%%%%$$$$$$###@@@@OFHSSSeOrSSCSOO@@@###$$$$%%%%%&%*%%*%%*&&&&&&&&&%%%%$$$$$##++$++OAAFAFo",
"OFSFH7$+@@$@@$#$$$$$$&&&$%%*$*%%&&%&&%%&*%%$$$$$$@@@@@@@++CSSZS9OwZmvC+O++$++&+&$$$$%%%%*%%%*$*$%&%%&%%%%%%%$$$$$####@@@@OCSCCSO",
"OZZAZ6$O@@@@+$+&$$$$$&$&*%*%%$%%%%%&%%%%%%%$$$$$$$$@@@@$+OCCCCC9OwCmCC+++#++$+#+$$$$%%%%%%%%$*$*%%%%%&%%%%%$%$$$$###@@@@+OACCCCo",
"OAAAA2$O@@@@+$#+$$$&$&&$$$$**$%$%%%&&%%%%%%$$$$%$$@@@@@@+OCCCCC7O0vBvCO+&++$+##&$$$$$%%%$**%*$*$%%%&&%%*%%%%$$$$$###@@#@+OVVCvvO",
"OCCBC2$O@@@@$+#&$$$$$&&&*$*$$*%*%%%%%&%%%*%$$$$$$@@$@@@@OOBvCCC6OeBvmm++++$+$+&+$$$$%%%%$*%%$*$*%&%%%&%%%&%%$$$$$###@@@@OOMmvmg.",
"OBCCC2$+#+#@###$$$$$$$&&%*$**%*%%%%%%&&%%%%$$$$$$@$@@@$@OOBBvBm7OeBvvBO+++$++##&$$$$$%%%%%*$*$*$%%%%*%%%%%*$$$$$$###@@@@OOmvvxgo",
"OCvCC,%O###@###$$$$$$&&$%$*$$%$$%*%%&%%%%%*$$$$$$@$@@@@@+Ocvmmm2O0vvgBOO#$++$#$+$$$$%%%%$*$*$*$$&%%%%%%%&%%$$$$$$#%#@@@@OOcxgggX",
"OmvBB,$O+##+###$$$$&$$&&%*%%*$%*%%%*%%%%*%%%$$$$$$$@@@@@+Ovggcv2O0gvvmOO+#+$###$$$$$%%%*%$*%**$*%%%*%%*%%%%%$$$$$#####@@OOccadfo",
"OvBvm1$O#+####+$$$$$$&%&%$*%$*%$%%%%%%*%%%%$$$$$$@$@@@@@++gcccm2O9vvgBOO+#+####$$$$$$%%%**$$$%*$%%%%%%%%%%%%$$$$$###@@@#+Ogxgxgo",
"Ovmvv,&+++#####$$$$$$&&%%%&%%*$*%%%%%%%%%%%%$$$$$@$@@@@$OOxcccm2OegcvvOO#+@$++$$$$$%%%%%*$$**$%$*%*%%*%%%%%%$$$$%####@@@++xgxxgo",
"OBvBm,$O+##+###&$$$$$&&%%%%%$**$%%%%%%*%%%%$$$$$$$$@+$@@OOcBBvv2O0vcvv+O##+$#$+$$$$$$%*%$$*$$***%%%%%%%%&%&$%$$$####@@@@+Odxxxx.",
"OvBBC,$++$+$##+&$$$$$&$&%%%%*$%%%%%%%*%%*%%%$$$$$@@@@@@@+OBcmvm2o0cvvmOO+#+++&#&$$$$%%%%*$$*$*$$%%%%%%%*%%%$$$$$%@##@@#@++lcccx.",
"OBCCC<$+++#+###+$$$$$%&&%*%%%$*%%%%*%%%*%%%$$$$$$@$@@@@@OOcBmBv4oevmmmOO$+$++++$$$$$$%%%*%*$*$*$*%%%*%%%%%%%$$$$$##@@#@@OOvcccc.",
"OBCCC2$+$+++&+#&$$$$&&&$%%%%*%%%%%%%%*%%%%%$$$$$$$$+@@@@OOBBBBC6OqBBvBOO###+###&$$$$$**%$$*$*$$*%%$*%*$%&%&$$$$$$$$++##@OOvmmcv.",
"OCCCC2$++$$+$++&$$$$+&$&%%%%%%%*%%%%%%%%%%%%%$$$$@$+@@$@+OCBCCB6OqBCCCOO++####+#$$$$%$$$%*%%$**$%%%%%%$*%%%%$$$$$@@####@OOmmmBmO",
"OCCCS6$+++$+++##$$$$&$&&%*%%%%%%%%%%%%%%%%%%$$$$$$@$@+@@OOAVZZZ7OtCCCCO+$++#+$$&$$$$$%$*$**$*$%%%%$%%$*$%&%$$$$$$@$@+###+OCCCCvo",
"OCAAS6$O$++$+&#&$$$$&&&$%%%%%*%%*%%*%%%*%%%%$$$$$$$+@$@@OOAASAA9OyZZSSOO$+#+#$+#$$$$$**$*$*%*%%%*%*$**$*%%%$%$$$$$$++$+++OCSZSCo",
"OSAAH5%O##+####$$$$$%%*%*%%%&%&%*%%%%%%%%%%%%$$$$##@@@@#+OFFFFF0OtAFDD++@@@@#+$$$$$$$%%%%%%%%%%%%%%%*%%*%%%%%%$$$###@@@@@OAFAAAo",
"OHFHH5$O+@#+###$$$%$%%%%%%%%%%%%%%%%%%%%%%%$$$$$$$##@@@@O+HJJHFqOyFFHHO++$@+#$@$$$$$%%%%%&%%%%%%*%%%%%%%%%%%$$$$$####@#@@oFFFFFo",
"OJHHHq$O#@@####$$$$$%%%%%%%%%&%%%%%%%%%%%%%%$$$$$$##@@@@+OJJJJKtOpFJJKOO++$+@#$$$$$$$%%%%%%%*%%%%%%%%%%%%%%%$$$$$###@@@@OOLHJHJo",
"OLPLPq%O#@#####$$$$$$%%%*%%%%%%&%%%*%%%%%%%%$$$$$####@@@+OPKIKPuOpJKKJO+$++$$#@$$$$%%%%%%%%*%%%%%%%*%%*%%%%%$$$$$###@##@O@LLPPPo",
"OUIIIu%+@@@@#$$$$$%%%%*%%%%&&&&&%%%%&&&&%&%%%%%$$$@$+##@OOUIIIIdOdIKKIO+@@@#@$$$$$%%&&%&*%%*&&&&%%*%*%*%%&%%%%%$$$##@#@@OOIIIIIO",
"ORRRWu$+@@###$$$$%%%%%%==*==&==&-==-=&***&&%%%%$$$$$##@#OOIRIIRd+kIIYROO@####$%$%&%%&&&**-*****&*********%&%%%%%$%$###@@++RRIUUO",
"+WEWWh$+@@@#$$%%%%%%%*=%=%%=&&===%*%&=*=****&&%%%%$$$#@@++EEQERlOkRRER++@@##$%$%%%&&&&&*%*%******=***--*%=**%%%%%%%$#@@@@ORWWERO",
"+Q!!!h$+@###$$%%%%%=-%==========----*===*=***&%%%%$$$#@+++QWWQExOzWWQQ+O@@##$$%%%%&=&*=*---*==*=*==****-==&==&&%%%$%%@#@OOQWWWWO",
"o^~^^l%O@#@#%%%&*%&****=---=---=-----=--=*=**%&&%%%$$$+@@O!~!!!mOzQ!!!o@@@##$$%%&&&***=*---=------------===*=%%%%%%$$@@@@O!!!!!@",
"+^^)^x$O#@###%%&&&*****--=----------=----*=&**&&%%%$$$@@OO~^^^~COb!/~~@O@###$%%%&&&=&===--=-------=--==--==*=%&%%%%%$$@@OO~~^~^@",
"O))_`n$O@@@#$$%%&&****=*----------=-----*****&&&%%%%$@$+OO)))^)COn////O@@@@#$%%&&&=&**==----------------==**%=*&%%%$$@@@Oo))~)^@",
"O_)_`n$@#@@#$%%&&&**&===-=--=----=--=---===****&*%%%$$@@+O)))^)FOn))))OO@@##$%%*&&&&*===---------=----=-==**==%&=%%%$#@@O@`)_)`@",
"O]'']V$+$+$#$%%*&%***===--===-=--=------==****&&%%%$$$@@+O____)FOV]``'O@#@##$$%%%&&=**=*----=-----------*=****&%%%%%$@@$+O'``''$",
"O]]]]V$O@@@#$%%%%%***=*=-------=----=---*==&**&%%%%$$@@@+O_]{_)HOV]]''O@@@##$$%%&&=&***=---------=-=-=--===****%%%$%$@@@@+]]']'@",
"O{{{{B$O#@+$$$%%&&**%===----------=-=---==*&**&&%%%$$@@@+O{__{]H+M]]]]@O@@##$%%&&&****=*-------=-=----=-*=&***&%%%$%$$@@OO]]]]]@",
"+}{}{A$O@+#+$%%&%&&=&===---=-----=------*==***&&&%$$$$@@++{{_{{KOV]]]]o@@@#@$%%&&&***===--=-------------===&&*&%%%%$$@@@OO}}}]]#",
"O{{{{A$O@@+$&$&&&&*****=-------=--------===&==&%%%%$$#@O@o}]]{{KOV]]}{+OO@@#$$%%&&*****=-------------=--==**=&&&%&%$$##++o}}}}{@",
"O{}{{S@++@+$$$&&%&***===---==---------=-==&==&&%&%%$$#@@OO}]{]}IOZ]}}]+O@@@#$%%&&&***==*=--=--=--=-----=**=**&&&&%$$$#@+++}}}]{#",
"O{]]{C$O++$+$%$&&&******--=-----------=-===&**&%%%$$###OO@]]{{_IOV]}{{O+@@@@$$%&%&*****=----=------=----===***&&&&$%##++OO]]{}{@",
"O{___C$O+++$$$%%%%****==------=-=-----===*=&*=&%%%%$$##OO@]]]]]KOV]]]_+OO@@@$$%%&&***=*=-==---=--------==*****&%%&$$##@+OO]]]]]@",
"O(((_C$O+@+#$$&%%&=***=======&==*==*==*===&=**&%&&$$#@@+OO_]]']J+M'___OO++@$#%%%%&*****=======%========*=*****&%%&%#%#@+O+`````@",
"+(^^(g$O+@##$$%&%&=&%===*=**===&*===&=======&*%%$&$$$@@+OO)))__S+n)))/OO+@@$$$%&%%****==*=*==========&=*=*****&%&%%##@@+O+`````@",
"O!!^!f$OO@#$$$&%%%&%=*&======&====*===*=&**&&&&%$&&$###+OO~)~^~COb~~^^OO+@##$%&&%&&%****=*=========*====****&&%%$&$$###+OO~///!+",
"OWEEEf#OO@+#$$$&%%&*%*==*=======**=======**=&&%%&&%$##++OOQWQ!QBObWWWWOO+@@#$$$&%%&%*&*=**=*=*====*==*==****&&%%&%$$###+OOW!WWW+",
"+EKYIi$O@@@@#$%$$%&%&&&&*-***--********=&&&&%%%$&#$$###+OOYRRRRzOjUTRROOO$+$#$$$%%%%&&&&&=&=-=*=&&&&===&*&&&%%&%%$$$#@@@+ORRRRRO",
"+KKKKe$O@@@@#$$$$$$&%%&&%%%*%%%%&&&*&&%&&&%%%%%$#&$##+++OOIPIIIlOjPUUPOOO+++#$$$%%%%%&&&&&&&%%%%&&&%&&&&%&%%%%#%$$$##@@OOOIILIL+",
"OGHKKw#+O@@@###$$$$$%%&%%%%%%%%%%%%%%%%%%%%%$$$$&+$+#$++OOJJKJLp+iJJJJOO+####@#$$$$$$&%&&%&&%%%%&&%&%%&$%%%%##%#$###@@@@OOLLJLLo",
"OSSSH8$OO@@#@#####$$$$$%%%%%%%*%%%%%%%%%%$$$$%##$+#+++$OOOHFHHFtOiFFGSOOO@#+@###@@$$$$$%$&%%%*%%&%&%&%&&%%$#$$####@@@#@OOODDFFHo",
"OCCSS7$OO$#+####$#$$$$%$%%%%%%%%%%%%%&%%%#$$$$#####$+$#OOOAASAA9OwZSAAOOO@@@######$$$$%$&&*%%%%%%%%%%%%%%$#%$$#####@@@$OOOVADDDo",
"OCCCC2#OO+#+@#####$$$%$%%%%*%%%%%%%%%&&%%%$%$$#####+#++OOOZBCCZ8OwBZVZOOO#@@#####$$$$%$$&$%%%%%%%%%%%%=%%$%#$$####@#@@@OOOBBBVBo",
"+vCvB1$OO+########$$$$$$%%%%%*%*%%%%%%%%#%$#%###$+$++$++OOBmmmB4O0mmmmOOO#@@@#####$$$$$$%%%%%%%*%&%*%%%%%$$$$$######@@$OOOBncBBo",
"+vvvv,$+++@@@@####$$$$%%%%*%%%%%%%%*%%%%%#$%#%##$++$++++OOvccvv4O9cccmOOOO@#@#####$$$$%$%%%%%%%%&%%%%%%%$%$$$$####@@@@OOO+ccccco",
"Ofxvc,$OO+@@@@@$@$$$$$$$&&&%%&%%%%%%%%%%%#%#$$######OOOOOOccxvv2O9xxxxOO++@@@@####$$$$$$&&&&%&&&%&%%%&%%%$$$#$######@@oOOOxxxxx.",
"Ofgcc:#+OO@@@@$@@@$$$$$%$$$%$%$$%$%%%#%%#%#%$$####O###OOOOxgxxx<O7xxxxOOO+@@@@####$$$%$$#&###&#&$%$$$$$%%$$$$$######@#@OOOxxlxx.",
"Ofgxg,$OO+@@@@@$@#$$$%$$%%$$$%&$%%%$%#%%$$%#$$######O##OOOxxlxx<O9gxxxOOOO@@#@@###$$$$$%%##&&#%#%%$%%%$%$$%#$$########OOOOzlxxlX",
"Ofgxx,$OO+@@@@@@##$$$$$%$%%$%$$$$$$%#%%#%%#%#%########OOOOxgxxx1O9xxgxOOOO@@@@@###$$$$$$%%%&#&#&$$$$%%$$%$$%$$#####O##OOOOxxlxxX",
"Oggvc1$OO+@@@@##@$$$$$%%%$$%$#%$%$%$#%%$%#$#$$####+###OOOOxxxcv4O9gxggOOOO@@@#@@###%$%#%%%%$%%#%%%%$$$$%$%##$$####@@@@OO+OlccxxX",
"Ovvgv<$OO+@@@@##@##$$$$$$%$$%%%$%$$%%%$%%$$$$###@####OOOOOxvnvn6O0xvvgOOO+@@@#######$$%$#%%$#%%#$$%$$%$%%$#%$#####@@@@O@O+nvnnnX",
"omCBv2$OOO@@#@##@##$$$$$%$%$&$$$$$%$%%$$$%#$$###@#+###OO+Ovmmmm7O9vvvvOOOO#@@@#@###$$#$$%$$$#%$#%#%$$$%$%$#$$#######@@oOOOmmmmmo",
"OZCCA6$O++@@@@#@$##$$$$$$$$%$$%$%$$%%#$$$$$$$####@##+#OO++CNNSZ9OwCZCvOOOO@@#@@####%$$%$$$$%%$%&%%$%%$%$$$$$$#####@@@@OOOONZZZNo",
"OSSSS7#OOOO+$@@####$$$$$%$$%#$$$%$$$$$$%$$$$$###@#@@#+OOOOASAAA0OeZZZZOOOO#@@@#####$$#$%$%$%#&#$#%#%$$%#%%#%$########+OOOOZAADDo",
"oGGGG9&OOO$+@@@@###$$$$$$$$%$%$%$$$$%$$$%$$$$##@##@@@OOOOOGSDFFworAASSOOOO@##@@####$$%%$$$$$&#&$%#%#$$$%#%##$######+#@OOOOFDSSSo",
"OJLKKw#OOO++@@#####$$$$$$#$#$$$$$$$$$$$$$$$$$##@##@#@@@oOOKLLGGjOrLLGGOOOO@#@@@####$$$#$#$$$#$$$%$#%$$$$#%%#$####@+#++O@OOFFGGLo",
"oUUULe&+OO#$@#@###$$$$$$#%#%$$$#$$$$$$$$$$$$$$$@##@@@@O@OOLLPLPjojLPKPOO@o@#@##@###$$$$$$$$$$$$$$#%#$$$$%#%#$$######+OOOOOLLLLPO",
"OUTTUi#+OO+@@@####$$$$$$$$$$$$$$$$$$$$$$#$$$$$$#####@@@oO+UTIPUzojUTYT@oOOO########$$$$$$$$$$$$$$$$$$$$$#$$$$#$##@@@@@OO@XLUUUI@",
"OTTWWd#OOOO@@$##$$$$$$$$$$$$$$$$$$$$$$$$$$$$$$$$####@@@oOOWTRTRnokURETo@OOO#####%#%$$$$$$$$$$$$$$#$$$$$$$$$$$$$$$#@@@@OOO@WWRUUO",
"oWWWWl#+OO@@@##$#$$$$$$$$$$$$#$$$$$$$$$$$$$$$$$$####@@@@OOWQWRQN@zWQWW@oOO@@###%#$$$$$$$$$$$$$$$$$$$$$$$$$$$$$$$$###@@@o@XRRRRR@",
"o!!!!l#+OO@@@#$$$$$$$$$$$$$$$$$$$$$$$$$$$$$$$$$$&###@@@XOOWQQQQDozQQQQO@@oO###$$#%$$$$$$$$$$$$$$$$$$$$$$$$$$$$$$$$##@#O@o@QQQQR@",
"o~~Q~b#OO++@##$$$$$$$$$$$$$$$$$$$$$$$$$$$$$$$$$$&###@@OOOO!~Q!~Doz~~Q~@OOO@@####$$$$$$$$$$$$$$$$$$$$$#$$$$$$$$$$$$$##@OOOO!QQQQ@",
"o~~/~v#OOO+###$#$$$$$$$$$$$$$$$$$$$$$$$$$$$$$$$$##&##@O+OO!!!~!SozQ~~~OOOO@###%#$$$$$$$$$$$$$$$$$$$$$&#$$$$$$$$#$$$##@OOOO!!/~~@",
"o!~(~k#O+O@##$$$$$$$$$$$$$$$$$$$#$#%$$$$#$$$$$$$&#$##@OOOO~~~!~Dob~~~~@oOO#@#%##&#&$$$$$$$$$$$#$$$$$$$&#$$$$$$$$$$$###OOOO^!/~~@",
"o!~~~x#OOO####$#$$$$$$$$$$$$$$$$%#%#$$$$$$$$$$$$#$$##@OOOO!~QQQA#z~~~QOOOO@@###&$##$$$$#$$$$$$$$$$$$$$$$$$$$$$$$$$$##@+OOOE^QQ~@",
"o!QQQx#OOO@######$##&#$$$$##$$$$#%#%#%##$$$$$$$$&$###@OOOOQQRR~ZozQQQQ@OO+@@######&#$$$$$$$$$$#%$$$$#&#$$$#&#$$$$$####OOOOQQQQQ#",
"o~EQQg#O+O@@#####################@#####@####$###@@####OOOOTWTRRZozWQWUoOO++@#####@#############@###################@#+OOO@WWRWRO",
"oWERTx@OOOOOO##O################@@@@##@@@@@@@@@@@+#@@OOOOOTIPRTbXkUUUU@@OO+O@@##@@@+@#+@+@#+#+@@#++#+@@@@@@@#+@######OOOOOUUUUT@",
"oUUPTa#OOOOOOOOOOOOOOOOOOOOOOOOOOOOO@@OOOO+OOOO++O++OOOOOOPLPPPxokPUUUOoOOOOOOO+OO++++OO++O++++++O+OOO+OOOO+OOOO+OOOOOOOOOPPPPPo",
"OPLLPr#@OOOOOOOOOOOOOOOOOOOOOOOO@o@OOOOOOOOOOOOOOOOOOOOOOOLLGLLjXjPLLLO@OO+OOOOOOOOOOO++O+OOO+O+OO@OOOOO@OOOOOOOOO@OOO@OOOLLLLLo",
"XLLLLq>>>><<><<<<<><<<<<<<<<<<>><<>>><<<,><<><<<,,>><<<><,ADFGLaOrFGSG3333334333333333333333333335333333333333323333333333SLFFFX",
"oFFSSSPEWRTETUTRRRWTRTTERETRRWTUTWTTIYYYUUYYUPTRTWWWITIUPYZSADAwXrZDADTTTTPTPPPYTTPYPJPTUUTUPTTUYTPPTPPPYPPPPKPYPPPPYPYIPPZZZZAo",
"oZZZZZNZZZZZZZNNNZZVZZZZNZZZZVNNmZZNNmNNNNmNNnmZZZVVNNmNCmNNNmN0oqmNNNNNmNNNNNNNNNmvvvvNmZNmmZNNmZmNNNmmNNNNmNvmNNNNNmNmMNmNNNNo",
"ONNmNmNNvNNvvvNvNvNNvNNvvxvvNvlvvmmnvxvnmnnxcvvmmmmmnvnxvxvnvvv7O0nvvmvcvmvvmnnmncxdxvxvbxdvcnnnbmnnmmnnvvvvvxvvvvNvnnccxxnvnvno",
"onnnvvvxnvcxxvbvxbxxxxgvlgxvbkdbvxxxxlxxbxllxccbnnbvbxflxfdcxxx6X9xvxcxkxxxcbklxxlkxdgdglxxxxxkccxnvxxxvccxlxxxcxxzlllfflxxxcxbX",
"oczbxxlbxxglgxgdkxlgddkgglxkdaagsglgasxdlllxfddcxxxxllddsdflkkx2o9dlllkgllxfddllllddsddfdxdfkkkkkxxdxkkxllzkklglllllddfddllllllX",
"oxxllllllllkllsykxklddgddkggayddaxddddkdddddssskxklxkdsssdkdlld<oXXXXoXXXoXXXXXXXXXXXXXXXXXXoXoXXXXXXXXXXXXXXoXXXXXXXoXXXXXXXXXX"
};
