/* XPM */
static char *Door_Industrial_Military1714803506[] = {
/* columns rows colors chars-per-pixel */
"128 128 80 1 ",
"  c #1D2627",
". c #1D2628",
"X c #1F292B",
"o c #212D2E",
"O c #273535",
"+ c #2A3837",
"@ c #2D3C3B",
"# c #3B3B32",
"$ c #323D3A",
"% c #30413E",
"& c #5C503C",
"* c #354543",
"= c #384644",
"- c #374946",
"; c #3A4946",
": c #3B4D4A",
"> c #3E514D",
", c #4D4D41",
"< c #40534E",
"1 c #5B594C",
"2 c #415550",
"3 c #465A55",
"4 c #485C57",
"5 c #4A5E59",
"6 c #5B5E52",
"7 c #645640",
"8 c #6C5F47",
"9 c #4E615B",
"0 c #5D6257",
"q c #51655F",
"w c #5E665C",
"e c #6F614A",
"r c #70624B",
"t c #656555",
"y c #686757",
"u c #63675B",
"i c #6B695A",
"p c #7C6E57",
"a c #746D5B",
"s c #76715F",
"d c #79735F",
"f c #526760",
"g c #566A62",
"h c #5A6E66",
"j c #5C6F68",
"k c #5B7067",
"l c #5D7169",
"z c #626C61",
"x c #667066",
"c c #6C7162",
"v c #62756C",
"b c #68776C",
"n c #64786F",
"m c #6B7A6F",
"M c #727362",
"N c #667A70",
"B c #6A7D73",
"V c #717F73",
"C c #817A66",
"Z c #6E8176",
"A c #6F8278",
"S c #708377",
"D c #798374",
"F c #728479",
"G c #76887C",
"H c #798B7E",
"J c #868C7E",
"K c #7C8D81",
"L c #7F9082",
"P c #818E82",
"I c #829384",
"U c #8D9384",
"Y c #929687",
"T c #989785",
"R c #9A9886",
"E c #919688",
"W c #999D90",
"Q c #A09B88",
"! c #AEA691",
"~ c #B5AA96",
/* pixels */
"HKHHHFFGFFFFFFFHHHHKHKKHKHKHHHHHKKFFKGGHKHHHHHHHHHHHHHHHHHHHFHGFGHHHHHFFHHHHHHHHKKKFKKGKHKHHHHHHHKHHHHHHHLHKHHHKKGKKKHKKKHKKKHKK",
"HKHHGFFFFFFFFFFGHLKHHHKHHKJHHHHGFKKKGKHHHHHHHHHHHKKHHHHHHKHHKHHHHHHHHKHHHHHHKHKKKKKKKGHKKGHHHHHHKHHHHHLHHHKHHKHKKKGKHHKHKHKKKHGK",
"HHHHFFFFAAAAFFFFHHHHHHHKHPHHHHHHKKKKGGFFFGHHHHHHHHHHHHHHGKKGFFFFGDFHHFFGHHHHHHHHKKKKGKKKFHHHHHHHHHHHHHHHHLHHHHHKGKKGHHHHHHKHKKKK",
"HZNg5959999995999999q5qqq55599999949555q5q55q5959q954q5q9559595q55559595995q959q9999555599599959q9q9999999999999999995995959gBBK",
"HnKKIHIKLLLLLLLLLLIIIIIIIIIIIIILKKLLKKLLPIPKPLIIIIIIIKLILKLKLKLKPKKKKIKIIPPPIIIILLILLLLKIKIPPLIPIIHIIIIIIIIIUIIIIIIILLKLIIIIIING",
"FlFFFFFFFAAFAAFFFFHHHHHHJHHHHHFGAKFFVKFAFFFFFFFHHHHKDFFFFFFFFFFAFGFFFFAFFHHHHHHHVKKFFFAKFFFFFFFGHFFHHHGGFHLHLHKKKLHFFFFFHKFHKKvK",
"FhFFFFFFAAAAFFAFFFFGHHHHHGFHHHFFKVKAKBFFFFFFFFFFFHFFFFAFAFFAFFFFFFFAFFFAFGGHGGGFFFFFFFFFFHFFFFFFDAFFHFFFHHHHHHHGFFFFFFFAGGGHHHlG",
"Fvq-334453553933544444444544444543344444444444444544434444444545444444444444444444444445444454544544444444443944544433444545-gBH",
"FAB9NNNN@+@@+@@%@@@@@@@@@@@@@@@@@@@@@@@@@@@@@@@@@@@@@@@@@@@@@@@OOO@@@@@@@@@@@@@@@@@@@@@@@@@@@@@@@@@@@@@@@@@%%@@@@@@%@+@*NNnnfBGK",
"FFFfAAZB:ZZZAAAFZFFFFFFFFFFFFFFFFFFAAFAFAAFAFFAFFFFFAFAFFFFAFAgAAkBAAAAAFFVFAFFFFAAFFAFAAAABKBKAFFFZFFFAFAAFFFFFFAAAZAA:ZAFFgFHK",
"AFFhFFFA:ZZZFFFFFFFFDFFHGFFFFFFFFAFFFAKFFFFFFFAFFFFFFAAFFFFAFFhFFlBAAFFFFFFFFFFFFFFFFFFFKBBKBAAAFFFFFFFFFHKHFFFFFAFFAAA3FFFFhHHH",
"FFAhAAFF:ZAAFFFFFFFFGGFHHHFFFFFFFFFAFFBAFFFFFFFFFFZFFFFFFFFFFAkAFnBAFFFAFFFFFAFFAFFAFFFAAAKAAAABFFAFFFFAFHGFFAFAFFFFAFF>FFFFhFGH",
"FFAkAAFF:AAAAAFFFFFFFHHFHHFFDFFFFAFFFFFFFFFFFFFAFFFFFAFFFAFAFFhFFlBFFAFFFFFAFFFFFFFFFFFFAAAAAKBKFFFFAFFFFGFFFFFFFFFFAFF>AFFFhFGK",
"FFAkFAFF>AKAAAFFFFFFHFHHHGFGFFFFFFFFFFFAAFFAFAFFAFFFFFFAFFFFFFhFFvBFFFFFAFFFFAFFFFFFAFAFKBAKBKAAFAAFFFFFFFFFFFAFFAFAFFA2FFFFhFFG",
"FFFhFFAA>FAFFFFFFFFKHHHDHHFGFFFFFFAFFFFFFFFFFFFAFAFFFFAFAFFAFFhAAvBAAFFAFFFFFFFFFAFFFFFAAKAABABKFAFFFFFFFFFAFFAFFFFFFFF>FFFFhFFG",
"FAFkFFFF>FFFAFFFFFFFGHHHHHFFFFFFAFFFFFFAFFAFFFFFFFFFAFFFFFFFFFhFAvBFFFFFFFFFFAFFFFFAFFAAAAAAKAAAFFFFAFFAFFFFFFFFAFFFFFF>FFFFhFFF",
"FFFhAFFF>FFFFAAFFFHGHHHHHHHFFFFAFKBKVAAAAFFFFFFFBKBKAAKAAAABKBhBFnBAAFFFAFFFFAFAFFFFFFFFBAKKBVKBKAKAABAVFFAAKAKAFFAFFFF<FFFFhFFG",
"FAFhFFFF>AFFFFFFFFGHHHHHHHFFFFFFAAAAKAAAFAFAFFFFAAAAKABBABKKBKhKFlAAAFAFAAFFFFAAFFAFFAFFKABABKABBAVAAKFKFFFABABBFFFFFFF<FFFFhAFF",
"FAFhFFFVdMFFFFFFGGHHHHHHHFFFFFFFKBABBBAKFAFFAFFFAKAABAAKKBBAAAhBFvBAFFFFAAFFAFFAFFFFFFFFKBAAKKBKAKKBKVFVFFAAAKAKFFFFFFZpMFFFhFFG",
"FFAhFAFBriAAFFFFGGHHKHHHHGFFFFFFABKKAKAAFFFFFFFFABAAKAAAKAKABKhBFvBAAAFFAKAFFFAKFFFFFAFFABKVBAAAABAABKFFFFKAABABFFFFFFmeiFFFkFGF",
"FFFhFFFmriZFFFFFGHHHHHHGGFFFFFFFBFAAAAABFFFFFFFFAFAFKBABBKBABAhKAvZAFFFAFFFFAFAAFFFAFFFFKBAKGFKDKKVKFFFFFFFFBAKKFFAFFFBriFFFhFHG",
"GFAhFFFBriFFFFAFGHHJHHKHGFHFFFFAKAKBABKKFAFFFFFFFFFFABAKAABKKAhAAvBAFFFFFFFFFFFAFFFAAFFFVKKBFGFGAAABBKFFFFFFKABAFFFFAFZeiAFAhGHH",
"FFAhFFFmeiFFFFFFHHHHHGHHHGHFFFFFFFABKBAAFFAFFFKFFFFAAKABBKAAKBhBAvBAFFFAAFFFFFKAFFAAFFFFFVGGGGHHBKKKFFFFFFFFBAKAFAFAFFZeiFFFhFHH",
"GFAhFFFB7tAFAFFFGHHHHKHHHHHHHFFFFAFKAAABFFFFKFFFFFAKABKKAABKAAhKAvAFFFFFFFAFFAAFFAKAFFFAFDFFKGFFVKVKFFFFFFFAKABFFFFFFFB&tAFFhGHH",
"GFFhAFABpcFFFFFFGHHHHHHHHHHHHHFGFVKFVFAKFFFGGKGFKKAFAAFFBAAAAAhAAlBFFAFFFFAKAAAAFAFFFFFFFFFGKFFFKVKBBKBAFVFKBABAFFFFFFmpMFAFhFKH",
"GFFhFFFBeiFFFFFGHHHKHHHHHHHHHHHHGDKFKFBKFGHFGFGKKFKFFFFFKAKBAKjAFNZAAFFAFFAAAAFFFFAFFAFAFFFFFFFGBKKKKBKAFFFAFFKAFZFFFFV8iAFFhFHH",
"HFFhFFFBeiFAFFAGHHHHKHHHHHHJHHFGFHGKVVKBDGHFFHKGKKVFFFAFKBAAAFhAAvBAFFFAFFAAAKAAFAKAAFFFFFFFFFFFABKVABBAFFFFFBABFFFFFFVriAFFhHHH",
"HGFhFFFVeiFFFFFGHHHHKHKHHHHHHHGHGHKGKBBKGGKFGHKGVAAFFFAFABKBAAjAAvBAFFFAFFAFFAFAFFAAAAKFFFFFGFFFAKBKKKBKFFFFAKAKAFFFZFmriFFFlHKH",
"HHFhFFFmeyFFFFAGHHHHKKKKHKKHHHHHGVGFFFFFFGKDKKGFKFFFFAFFAAKKKAhAAvBAKAAAFFFFFFAAFFFFFFFAFFFFFFFFFFVKKFFFFFFFFFFFFFAFFZB8yFFFlHHH",
"HHHhFFFB#0AFFFFGHHHKHKHKKKHKKHHHGKGFFFFFFGKGFKGKKKFFFFFFBKBABAjAAvBAAAAAFFFFAFKAFFAFFAAAFFFFFFAFFFFGKKFFFFFFAFAFFFFFFFB#0FFHlHHK",
"HHHhHFFV>ZAFFFFGHHHHKHKKHKKHHHHGGGFFFGFFVGGGKFKKKKFFFFFFBAABAKjAKvBAAFFKFFFFFFAFAFAFFAKAFFFFFFFFFFFFFKFFFFGFFFFFFFFAFFF;FFFFlHKH",
"HHHjFFFF>FFFFFFHHHHKHKHKHKKHHHFGGKFFFGGFFFKFKKVFKVFFAFFAKAAKABhAAlBAAAFAFFAFFFFFFFFFFFAAFFFAFFFFFFGGFFKFAFFFAFFAFFFFFFF<FFFHvKHH",
"HHHjFGFF<FFFFGFHHKHKHKGKKGKKHHHGGGFFGFFFFFKGFFGKKFFFFFFAFFFFAAjAAvBFFFFAFAFAKAAFABAAABAFKFAAABBKFGFKFGFFKBKBFKFFFAFFBAK>KBBKjKKK",
"HHHjFFFF2FFFFFFHHHHKHKKKKKGKHHHHFGFFFFFFFFFKFGFGKFFAFAFFFFAFAAjAAvBAAFFFFFFABBKAAKAAKKFFBAAKKKAAFFBKFGKFFFBKFBFFFFFFKAB:AAKKjKFK",
"HHHhGFFF<FFFFFFHHHKGKKHHKKKHHHHHGGDFVFFFFFFFFFFFFFFFFAFFFAFFKAjAFvBAFKAFFFKBAAKBKBAKBAFAAAAABAKBVFFFFFFFFFBKKFVFFFAFBAK>KAKAhKKK",
"HHHhFFGF2FFFFFFFGKGKKHKKKKGKHHHHGGGGGHHFFFDFFFFFFFFFFFFFFFFFAAjAAvBAAAFFFAFABKFAKAABKAFFBKBKAAFFFFKFFFGFFFAVFKKBFFFFKAB>BAKKkKKF",
"HHGjFFFF2FFFFFFDHKHKKKHHKGHHHHHHKGHHHHHHKVFGFFFGFFAFFFFFFFFAFFjAFvBAAAAFFFFFKBABBFKBBAFFAAKBFFFFFFVKFVFGBAAKKBKAFFFFFFA>FFGGlKKG",
"HHFhFFFF2FFFFFHGGKHKHHKKKKKHHHHHHHHHHHHHFKKFKFFDKKFFFAFFFFFFFFjAFvBAKAAAAFFFAFAKAAAAKFFAKBAAAFAFFFFFFFFFKAKAVKBAAFFFFFK3FFHGlKHK",
"HHGhFFFF2FFFFFFHHKHKKHKKHKHHHHHHHHHHHHHFFFGFVFFGFFFFFFFFFFFAAFjAAvBAFFFFAFFAFFFBAAKBFFKAABKBFFABFFKVFFFFBABKKAKBFFAFFFF>FFHHkHHH",
"HHHhFFFF>AFFFFFHGKKHKKHKKGGKHHHHHHHHHHGGFFGGFGFKFFAFFFFFFAFFFFjAFvBAFFFFFFFFFFFKFBKAAABBKKAAFAFKKVFFFFFFKAAVKAVKFFFFFAF>FFGKlHHH",
"GKKhFFFF2FFAFFFGHHKHKHKHHHHHHHHHHHHHGKKFHFKVKKFKAAAFAFFFAAKNAAfKFvBFAFFFBAKKBAAFKVFFFFFFVAAAKBFABAKBBAKAKVKVBVKAFAFFAFA>FFGHlHHH",
"KKFhFFFF>FFAFFFFHHHKHKKKHHHHHHHHHHHKHHFGDFVFBVVBAAFFFFFFAKNKAKgNAvBAFFFFKABABKBKAAFFFFFFKVKAFAAAKBBKKBBABKKAKKBAAFAFFFF3FFFGlGHH",
"GGGhFFFA2FFFAFFFHHHHKKHKHJHHHHHHKHHGHHKFGFFFFBKAAKKAFFFFKNKNKNhKFvBAFAAKBAKAAAAAAAAFBKKFVKGFFFFVKABKBKKAKAAKKFKAFFFFFFF>FFFFlHHH",
"GFFjFFFF2FFFFFFFHHHHHHKHHHHHHHHHHHHHHGFFFFFFFKFFAKAAFKFANKNKNKfAFvBAFAAAKABBKBKBKAFFFFKFKVFVFFFKBBKBAKBBVKABFKBAFFFFFFF2AFFFhHHH",
"KHFhFFFF>FFFFFFFGHHHHHHHHHHHHHHHHHHHBKAFKAAAFFKVAKAAAAAAKAAAAAgAAvBFAFAFKBAKABKBBKBKKKVVFFFGFFFFKBKBKBBKVKAKVABAFFFFFFF>FFFGhKHG",
"GFFhFFFA3FFFFAFFGGHHHHHHHHHHHHHHHHHHKKKFKFFKFAKKKKAAAAKANKKAAKhKFvBAFFAFABAAAKBAKBKABKKKDFFGDFFFAAVKKVKBKBBKKAKBFAFFAFF>FFFFhGGG",
"KFAhFFAA>AFAAFFFFFHGHGHHHHHHHHHHHHFHKKVKKVVAVKBFKAKKAAAANKNKKNhAFvBAFFFFAKAAKBAKBBKBBKKVFFGFFFFFKFKVKKBKVKAABKBKFFFAAFA>AFAFhGHG",
"HFAhAFAK>FFFFFFFFFGFFGFHHHLHHHHHHHFHKBKVKKKBKVFKAABAAKKNKNKNNKhNAvBFFIWIABKBKABKVKABKVAKHFFFFFGGBAKKKBKBAAAAAAAAFFFFFFF2FFFFhGKH",
"GFFkFFFF>KBNKNAAKBKBAKBKHHHHHHFHFHGHDHHFHHHGFDHGFFGFFFFFKNKNKNhKFvBAP~!~UVAFFFFFFKBVKVKVKKKBHFFFHHHGHFHHGFFFFFFFFFAFFFA>GAFFkAKF",
"HFAhAFFA>AAKAKBKAAAAAKAKHHHHHKGHGGFGGHHFFFHHHKFFFFDFFFFFNKNKNKfKFvBFMCaCMFFFFFFFVKFFFFAKKBKVHGFHGHHHHHHHGGFFFAFFFFAFFFF>FFFFkAKK",
"GFFhFAFF>KBKANAAKAAABKKKKHHHGGHHHGHHHHFFFHHKHKGGGFFFFFFFKNKNKNhNAvBA6iaa6FFFFFFFVKGKKFVAKBKVGGGKHHHHHHHHGFGFFFFFAAFFFFG>FAFFkHFK",
"FFFhFFFA>AABAKKBBAKAABAKGGKHHFFFHFFHHHHHFGHHHHHFFFFFVFFFBKNKNKhKFvBAx,1,xFFFFFFFGKGGKBKVBKBKHFFGHHHHHHHHGHFFFAFFFKFFFFG>FFFFkFFF",
"FFAhFFFA>KAKBKKAFFFFKAKKHHGGFFHFGFHKFFFFFGGHHHHHFFKFAAFAKNKNKNfKFvBAABjAFFFFFFFFFGGGVGFFAABKAVGKHKHHHHHHHHGGFFFGFFFFFAF>FFFFkAKF",
"FFAhFFFF>BAAAABAFFAFBAKFGGGFFFFDGHFHFFFFFKKHHHGHKFBFKBAKNKNKNKgNFvBFFFFFFFFFFFFFFFFVFFFGVKKKKKKGKHHHHHHHHHHGFFHHKFFAFFF3FFFFhFHF",
"FFAkFFAF>KABKBKBFAAFAFBFFFFDFHFHFGDFGGFFVGHHHHGHFVFFFAAAKBKNKBgKFvBFFFFFFFFFFFFFFKGFFFFFKFKVAKFKLHHHHHHHHHHGFHHHFFHFFFF>FFFFlGFF",
"FFAkFFFF:BKKAAAAFFFABAFAFFAFFGFHFHHGHFFFFGHKGDFGKAFAFFFANKBKNKfKFvBAAFAFFAFFFFFFVGGFKFFFBAKKKKKKHHHHKKKHHHHHHHHHFFGFFFF>FFAGhGFF",
"AFFkFFFF>FFFBAABFAABBBZBFFAFFFFFFFGGHGFFFGHHGGFGFFFAKBKKBKBAKNgBAvBFFVFVFFFAFFFGGFFFGFFFFFGHHHHHHHHHKHLHHHHHHHHHGFFFFAF2FAFGjFGH",
"FFAhFFFF>FAFKAAKAKAABBABFFAFFFFFFFFGHGFFFHHHGGFFAAFFBKBBAANKNKgKAvNAKKPVGFFFFFFFFFFFGFFVGAHHHFGHHHHHHHHHHHHHHHHHFFFFFFF2FFFFhFHH",
"AFAlFFVF:FFFBAKAFAAABBZAFFAFFFFGFGGHKGFGGHHHGGFFFFFFBBBBNKKNKNqKFvBKPRTTPGFAFFFFFFFFFFFFFFHHHFHHHHHHHHHHHHKHHHHHHFGFFFF2AFFFhHFH",
"KFAhFFFF>AFFKABBFFFBBBZZAFAFFFFFFFFGFFFFFHHHHFHFAFFFKBKKKBKBNKfAFlAPCdCTQWEEEEEEYUFFDFFFFSZGHGHHGFHHHHHHHHHHHHHHHHFFFFF2FFFGjGHG",
"AAFhAFFFwVAAKBBKFAAZBBZAAFFAFFFFVFVKFGFKHGKHFGHFFFFFFAKBNKNKNAhAAjBKaaadsddsddCaddFHFFFFGFFGHFHHHFHFHHHHHKHHGHKDDFFFFFFuDAFHjHHH",
"FAFhAFFBriVFBKKVFFAZBZZZZFAAFFFFFFFKGFFGGDHHHHFFFFGFFFBKKNKANKgAAjBFcai16uwwwwwwuzFFFFFFFFDHHHHHHFHHHHHHHHHHKKHHKFFFFDVeiDHHhHHH",
"FFGhFFFBriVFABABFFABBBBZZFFFFFAAFFFGKFFFKKHHHHGFFFFBFKBBNAKBABqBAlBAKw6uKGFFFFVFFFFFDFFFFFFHHHGHHHHHHHGHHHHHHHGHKFGGGGBriFFHjHHH",
"FFFhFFABriFFAKAKFAAZBBBZZAZAFFFFFFFGDFFKGGHHHHGFAFFKFVKBKNNKAKqNVhBAVKKGKGFFFFFFFFFFAFFFFFFGHGGHHHHHHHHFHHHHHHKGGGGFFFVriFHHhHHH",
"FHAhFFFVeiAFFFFFAZAZnZmZBAAFZFFFFFDFFGFFFFHFHHFFFFFFFAFFAFFAAFqZKjNAFFAAFFFAGFFFFFFFFGFFKFVKKKGKGKHHHHHFHHHHHHHHHHHGFGDeyHHHhHHH",
"HGHhFFFBeyFAAFAFAZAZZAZZZFFAFFFFFFGHGHHHFFGHHHFFFFFFFFFAFFSSZZ9NBhBAAAFAFFFAAAFAFDFVFVFABFFFGFKGHGFKHHHHHHLHHHHHHHFAGHSeiHHHhHHH",
"HHHhFFFBriAFFFFFGAmZZZZZZFFFFFFFFKHHHHHHHHGFHFFFFFFAFFFFAFAFZZqZBjNAAFFAAFFAFFFFHGGHGFFAFFFFFFKKHHGGHHHHLHHHLHHHHHHGGHDeiHHHxHHH",
"HHHhFFFmriFFAFAFGAZZZnZZFFFFFFHFFGHHHHFFHFDFGFFFFFFFAFFFFFFAFFqZAhvBAFFFAZAGFAFHFFGHGFVKFFFFFAFAHHGHHFHHHHHHHHHHHHHHGHZeiHFFkHHH",
"HHGhFFFmriFFFFAFAGZZZnZFAGAAFFGHGGGKHDFGFFFHGFFFFFFFFFAFAFFAAFgZAhnBAAFAFFAAFFFGFFFFFFFFFFAAKVAKGGGHHHHHHHHHHHHHHHHHHHDeiFGHkHHH",
"HHFhFAFmeiFFFFFFAAAZZZFFFFFFFZFGFGGHGFGGHDHGFFFFFGFFAFFFFAFFZZgZAhNAAAAAAAFAAFFAFFFFFFFFGFBKKKKAHFFHHHGHHHHHHHHHHGHHHHZeiHHHkHHH",
"HHGhFFGmeyAFFAFFFZAAZZFFFFFFGFFAFFHHHHHGHHFFGGFSFHFFFFFFFFAFSZqNAhvBAZAFFFAGFFFADFFFFFFFVVKVBKVKGGGHHHHHHHHHHHHHHFHHHHZeiHHHkHHH",
"HHHhFFFm&0AGFAFFGFZZZAFZAFFAFGHGFHHHHHHHHHHHGGFGHKFFFFAFAFFZZAgZBhvBAZZFFFFFFFFASFFFGFGFKFVKKVKAFHGGHHHHHJHHHHHHHHHHHHZ&tHHHkHHH",
"HHHhFFFZ@xFFFFFAAZFZZFASFFFFGHGAFGHHHHHHFGGHHGGGHHFFFASFAFFFZZfZAgnZZZZZAAZFFSFFZZAFFFFFFFFFFGGGGGGGKGHKHHHHFHHHHHHHHHG$xHHHkHHH",
"HHGhAFFF>FFFFFFFFFFZZAZFAFAFGAFFFFHKHHHHGHHHHHHHHLFFFFSSFAFAFZgZZknFZZBZZFFFFGHFGAFAFGFFFFFHGHHHHDHGGGKGGKHGHHHHHHHHHHK2HHGHkHHH",
"HHFgFFAZ>AZGAFAFFFFZZZSSFFFFZFAFFFHKHHHHGGHHHHHHHHHHFFFFFFFFFSgZGhvZABZBSZGAFFFGFFFFFFFFFFFHGHHHGFFFGFKGHHFHHHHHHHHHHHK>GHGHkHHH",
"HHGgAZFF:FASAFFFFSFZZZZZZFAFAFFFFGDGHHHHHGGHHHHHHHHHGFFFFFAFZSgZSknFAZBZFFZAZFAGGFFFFFAFDGHFFGGHGGFDGFGKHGHHHFHHHHHHGGG2HHGHvHHH",
"HLGgFFFA-GZSFSFAAGGZZSSGAFFAFFGFFFHKGFHHHHAGHHHHHHHHHAAFFFFFAAfZAknZFZmZSAGZSFFFGGFFFFFFGGFFHGFGFGFFVKAGGGHHHFHHHHHHDAF>FHHHhHHH",
"FFFgFAFA>SAAZAAGAAZZZZSZZGFFAAAFFFFFFHGHHHHGHHLHHHHHHHFFFFFFFZfZSknAZZZnSAZAFAAFFGFZZZSFFFFFHFFHDGVKBKGKGGHKFHHHHHHGFFF2FDGGkHHH",
"AFAqBZZA:ZSSZSAFGZFZZGGAAFFFFAAZFFGDGGFGHGHHHHHHHHHHHHHHHGFFASfZAknZZZnZZGGZAFFFFZFSFSFFFFFFFFFHKFFVKKFKGHGFGHHHHHFFFFF2FFHHvHHK",
"FAZ9ZZZB:SSSZFFFFAAZnZZAAGAZGZGSAFFHFHGHHHHHHHHHHHHHHHHHHGAFFSfZSknZZZZZAZAFFAFZAFZSBZFFFFFFHFHGVFFKKKKFHKFFGHFFGFFFFFF2HHGHkHHH",
"FFFfZZZZ-ZZSSASSAGAZZZSSGAGZFZGZFFFFDGGHGHHHHHHHHHHHHLHHHHSSFSgZZknFZZZmZGZAFAFZGZZZZBZFAFFFGHHHFFGGHHHHGGHGGKAFFFFFFAF>KFFHlHKH",
"AAFfSZZZ:ZZZZZFSFAAZZZSZZAGZFZZZAFFGHHHKHHHKHHHHHHHHHHHHHHSSFZqZBknFSZnZZGAGGZSZSZnZZBZAFFFFFGHFFGFHHHHGFGHHFFFFFFAFFFF2FFHHlKKK",
"HFAgAAAA:SSSZZSSGZZZZAASAGZAZZZZFFFGFFFHHHHHHHHHHHHHHHHHHGGSZZqZAkvAZZZBZZFAZSFASSZZZZZZZAAFGHHAFHDHGHHHHHHGGAFAFFFFFFA3FFKHlHHH",
"FHHhGAGS:ZZSZSFSFFZGZZSSZSAAGZZZVFFGFFFHHHGHHHHHHHHHHHHHHSSSZZqNZgnZZZnZSSZAZSGZSSZnSFnZSFFFAFFFFFGGHHHFFHKGGFFFFFFFAFA>FFGHlHKK",
"HHHgFFAA:ZZZAASSAAZZAZASAAZAASSZAFFFFHHHHGHHHHGHHHHHHHHHHAFASZqZBkvZAZnFFFAFFAAFGZZGZFSSSZFAFFFFFFFGFHFFHHHFFFFFAFFFAFA>FFFHlHKK",
"HGAhFAFS>ZZAAASSGAZZZSSSSSGSGZZZAAFFFHHHHGHHGHHHHHHHKHHHHGFFZZqZBkvBBZZAFAFFFFFFZZZZFZZZSAZFFFFAFFFGGFFFHHHFFFFAFFFFFFA:FFHHvHKH",
"AFFhFFFS:ZZZAZSSAFnZAASSSZGSZSZZAFFFGHFFHGGHHHHHHHHHHHHHHGAAZZqNBknZAnZZFAAFAFFFFAFZSFZZSSZZFFFFFFFFFFFFHHHFFAFFFFFAFFA>FFHHjKKH",
"AFFgFAFA:ZZZAZAFAZZZZSSAGZAZZZZGFZFFFHFGFGHHHGHHHHHHHHHHHAAFZZgZBhlZSZmFFFFFFFAFFFAFZZZZSSAZAFFFFFFFFFFHHHFFFAFFFAFFAFF:FKHHlHKH",
"FGFhAFAA:ZZZZnZAFSZZBZSFAGFAAAAAAFAFFFAHFHHHHHFHHKHHHHHHGFFSnZqZBkvBAZZFAFFAFAFFFGZZAAZmAAAAZAZFVFFFFFAFKFFFFFFAFFFFFFA:FHHHvHKH",
"HHHhFFSA:SZZnZZSAFZZZZSAAFAZSZFAFFFAFHGFGGHHHHHHHKHHHKKHAFAFZZfZBgvZZBBZFFFFFFAFAZSSAAAZZZSSZZSFFFFFFFFGGGFFFFFFFFAFAAA>FFHHkKHK",
"FFFgFFZZ:GZSABZAFFAAAAFGGHHGGZGFFFHHHGHHHGHHHHHHLKKLKLKHGAAAZZfZZhvBZBBFGHGGGFAGGGGAFAFASSGZFSFZFGFGFGGGFGFFFAFAAAAFAFA:FFFFhHKH",
"FFFgFAZZ-SZZZZZFHHHHHHHLHHHHHHHLHHLLLLJILLIIIIIILLLLLLLLHGAZZZqZZhvBBBZFHLKHKKHHHHHHKHHHHHHHHHHHKKKHKHKKKKLHKKKKGFAFAFA:FFFFlHKH",
"FGFfAAZZ-AZnnnAH*=---:::>>--:::-:>>>><:<>22<>>>:>3>>>>>>LGZZASgZAkvBBBZH->:>>>::>->:::::-:-:::>:::::::>>:::>->>-HGFFZZZ:FAFGhHHH",
"FGF9ZZZm:ZBZAZZH3kklklkkkvnlkkkkkllvnnnnnNNNvnnnlZZNZZl9LGAASSgZAhvZBZFH3hnnllnnvvlllllklkhkllllklnvnnNnvnnklnh4HGFAZBB:FFFFjHHK",
"FFFhAAZZ:ZZZZZZH9nZAAZBFAFGAFFFFFAFHFHHHHHHKHGHHHHHLKHZhLGSAAAgZAknZZAFHqBAFFFFFGFFFFFFFZZZZZASAFAFFFFFFFFFFFFBqHGFAABB:FFFFhHHH",
"GHFfBZBn>ZnZZZSH<qghgkhhkghkhhkhghkkkkvvvlvvvvnvlZllnlg3LGAFFAgAAhnAZAFH<gkllkkhkghhkhhhkhgqhhlkhhhjhllhlhhhkkf>HFFAANN:FAFFhHHH",
"FGGgZAZn:BBZZZFH>99fqggqqqqqggqqqqqhghhhhjhhhhhhhhlkkkq<LGFFFFgZSkZAFZFK>9hhggghghggggfqqgq9qqggghghhhhhhggggg9>HFAAZnn-ZGFFgHHH",
"HGFfAAZZ-BZBBBFH4lvBnBBnBZBBBBmZnNBBBBBSZFZFZBBFZFFFFFn9LGAFFFhZAknZAFAH4vBBZZBBBBBBBBBnBnnnNBBBBBBBBBBBBBBBBBl5HFFAZnZ:AZFAhHHH",
"FFF9BZZZ:BZAABFH9nAAAAAAFFFFFFFFFFFFFFHFHHHHHFFFGHHHGHZgKGFFAFgAGhZZAFFH9NFFFFFFFFFFFFFAFAAFFFFFAFFFFFFAFFFAFFNqHFAAZmZ:FAFGhGHH",
"FAF9AZBZ:BBZBBFH<qgghkkhhhkghhhhhjjlvhjjjvvvnvvvvvvkvvh2LGFFFFgAAkmZFAFK>fljhhhhhhjhhhkhqhhhhhjkhhhkkhlkkhhkhhf>HFZZZZZ:ZGFAhHHH",
"FFF9ZZBZ:BBZFBFH:99fgggqffq9qqhqqqffgqggghhhhhjhhhhhghq>LFFFFFgAFlZSZFFH>qghfggggqhqggqqqqqqqgggggfgggggqhggfq9:HGZZZZZ:AFGAgHHH",
"FFF9ZZBnpMBBBBFH4llnnBmnnnBBNBBBBBNBNnBZBZAZZZFFZZFZBBn9LGFSFSgAFlZSFFFH5lBNBBZBBBBZBmBnZnnBBNBBBBBBBBABBBmBBBk9HAZGSSZpMAAFkHHH",
"FFZ9BZBmeyBZFBFH9nZZZAAFAFFAFFFFFFFFFFFGFFHGGFGHHFFFFFBqLFAFFFgZAlBZFFFKfNFFFFFFFFFFFFSFSZAFFFFFFZFAFFFAFFFAAAn9HFASSSneiGGAhHHH",
"FFZ9ZZZbrtBZZBFH>9qqggggggwhhghghhhhhhhjjhxkhhllvjjhhkg2KGFFFFgZAkZZFFFK<qllhhhlhhhkhhkhhhhkhhhlhhhhhjhhhhhhhkq>HFAASSmeyFASkHHH",
"FFZ9FFZbeyBFFZFH-9q9q9qqqqqqq9q9qqfgqfgghghgghghhqhghgq:HGFFFFgAAlBZAAFH:9kgggggqhffgggggqqqghgkqqfgghghgqqqqq4:HFZSFFmryFFGhHHH",
"FFB9BSBbeyBFBBFH3lvlnnnnnnnnnnZmNmBBBBnBBBBBBBBZZBBmBBv9HGFZFAgGFlZAAFFL9vZZZBZZBBmmZBBBBnnBmBBBBBBBBBBBBBBBnnl4HFSSZFmriFFFhHHG",
"AZB9SBBb7tBZBBFH3nZZZZSSAZAZFZAAFZFFAFFFFDFFFFFFFAFFFFAqLGFFFZqZFlZAFAFHqZFFFFFFFFFFFAAFFFFFZFFFFAFFFFFFFFZFFFNqHGZFFFm7yFFFkHHH",
"FAZ9NBBbpaNBBBBH:9qgqqwqhkkhhhkghhgjhhhhhhhhjhhhkhhkkkq<HFFAFFqZFlNAAAFL3qhhhhkkjhhhhhhkhhhhhhhhhhhhjhhhhhhhhhq>HAAFFZmpcFFHkHHH",
"FZB9ZZBv8tBBBBBG*999qqqqqqqqq9q9qqqgggggfffhgqkhhgggghq>LGFZAZqAAkBFGAGH:9gggqqgqqqqqqfffgfggggqgqqggggqqf9ffg9>HFFFFFBeiFFHkHHH",
"ABZ9BZBbeyBBBFZH>lllnnnnnnmnnnnnnnnBBNBBBBBBBnBZZZZBBZn9LFFZAZqBAkBFAAFH9vBBZBBBBBBBBnBnvBBBBBBmBBBmZBBBBBBBBBl9HGFAFFmryFFFhHHH",
"FZB9BBBveyNBBZFH9nAZSSFGFASSZZFBBFBFFFFFFFFAAFFFGFFFFFZqKGFFFZqZAlBAFFFHqZFFFFFFFFFAFAZAZFFFFFFFFFFFAFFFFFFFAFnfHFFFFFmeiFFHkHHH",
"AAZ9BBBv8tBBBVFH:9gqqkqqghhhqghqghhhhhjjhhhhkkkkkkhlhvq<KFFZZFgZAkBAFFFH<gjjkhkkllhhkhhkhhhhhhhhhhhjhhhkkhhhhkq<HFFFFFmeyFFFkHHH",
"FZF9BBBv#6BBZBFH-999q9qqqq9f9q999qqqggfggffgqgggkqgqqh9>HAAAZAfZFkBAFFGL>9hggqggghhhgffggffgqqghgqqqggqhgggffg9>HGFAGAZ#0FSFhHHH",
"FFZqBBBB*NBZBBFH>lZlNnlnNlnnnvnnnnBBBZZZZBBZZZAZZZZZAZl9HGAZZA9BFlZFFFFL9nZZZZZAZFABBBBNBBBZBBBBZBZBBBZZBBBBBZl9LGFFZZZ;ZFFFhFHH",
"ZFZqZBBB-BBBBBFH9hlZlNnnNnNnnlnNnnZnnBZBBBNBZnZZZmmZZnk9HGAAZZfZAlNAAAHHqlZAZZZZBVZBNnNNBBBZnNNBnBnnZBBZZZZNNnl9HGFAZGA>FFFFhGHH",
"FZFqBBBB-BBBBBZK::>:::>:>>>>>>>>>->>>>>>>>>>2>>3322222>>HGAZBBqZAhZAGFFH>>3232323332<>2<<<3<<<<<>><<>><<222>2>>:HGFAFAA:FFFFhHHH",
"AAAqZZBB-BBBBBAFGHKGGGKHHHHHKKLKHHHHHHLHLLHLLLLLHLLHHHLHHFAFBB9BZhZAAAFHHHLIHHIIIIPKKKKKHIHLHLIHHHHIIHHHLHIHHLLLHFFFAFG-AFAFgGHH",
"FAGqZFBB-BBBBBBFZAZZAAAAFFASAAAAZGFGGGGGHGFHHHHHHHHHGGGFFAAZBBfZZhnAGAAFGGHHHHHHKHGGFGGGFGGFGGHFHHGFFHHHHHHHGGGFFFAZAFZ:AFFFgGHH",
"GZAqAZBB-BBABZBBZnZZZNBBZSSZSAAFSSSZFFFFAFAAHFHHHFSFFFZZZAmBBZ9ZZhlZZZAAAZFAAGHHGFFFFFFFFFFFFFFFFFFFFFFFFFGFAFFAZZABFAG:FFFAgGGH",
"ZZF9AZBN:BBZBBBFZZZnNZBAZSSZSSSSZZSAFAAFAFFFAFAFHGSFFFFZZZZnmn9nZqlZBBnZZZAFFGHHGGFFFFFFFFFGFFFHFFFFFFFFFFHFFFFFZFAZZFZ:AFFFgFHH",
"ZZAqZZZn-BBBBBBZBBZBBBFZZZASSSSZSZGAZGFFFFAFAFFFGFFAFZZZBNBBNB9nBgvBBBBBnZFGAGHHHFFGFAFFFFFFDGVHHGFFFFFFDGFFFFFASSZZSSS-AFFFqFHH",
"ZZG9ZnBZ-BBZZZZZBBBZBBZBZSSSSSSSZFZFZZFSAFFFFFGFAFFAFAAZBBBBBB9BBhvBBBBBBZAAAFGHHFGDGFFFFFFGFGGHHFFFFFFFHHHFFFFASZZSSSS>FFFFgGHH",
"AZZqBBBB*BBZZZZZZBBBBBZZZZZAZZSSFZFFSGAAFFAAFAAAFAAAAAAAZBBBBB9BBgvBBBBBZZFFSFAGHHGHHHHFAFHHHGHHHFFHFFFGHHHFFAFASSSSSSZ-AFAAgGHH",
"GZAqZZZB;nnvvvvvnvvvvvnnlZlZlZZlnnnnnnnZBBnBBBBBZBZnZZnvvvnvvv4lv9hvvvvvlnnBZnnZFBFVBBBBBBFBBBBmZZNNNBNFSBFmBBBBlZZlZZZ-AAFFgFLH",
"AFFqAZBBO-*;=====;====:;=:::-*-->-=::=::::::>:;:<:::::-;;*=;-**-*===-====:<::>>>:<<<;<:::::<<<<<<<;<<:<;><<<::>:>::::>-@AFFFgGHH",
"SFF9ZBBB@fqqqqqqqqqqgqqggwqqqgqqgwqgqgkhqqhhhhhqwhhghhkqgfqgqqqfqqfqffqgqhhhkghkvhjjvljjhhjjkkhhhjjhjhjjkkkkkkhhhhkhhgg%AFAFgHKH",
"FAA9BBBB@fffwfqqqqgqqggqqqqqqqqgqqqqkhhwhqqhkhhkkkkqhhkqgffffqf9ffqffqwqqhkhhkhhlhjlljvlhhhhjjzhhhghjjjjkkkkhhhqhhhhhgh*FFFAhFHK",
"FFZ9ZZBB+ooooXooooooooooooooOoooooooooooooooooXoXXooooooooooX.oXXX. .XoooooooooooooooooooooooooooooooooooooooXooooooXooOFFAAhHKH"
};
