/* XPM */
static char *Door_Industrial_Desert1714806627[] = {
/* columns rows colors chars-per-pixel */
"128 128 90 1 ",
"  c #303733",
". c #343937",
"X c #373E3C",
"o c #393F3D",
"O c #423E33",
"+ c #37403D",
"@ c #3A413F",
"# c #5C503C",
"$ c #414743",
"% c #444A45",
"& c #4C4C42",
"* c #454C49",
"= c #484F4B",
"- c #4D5147",
"; c #4C544E",
": c #50564E",
"> c #5B594B",
", c #4D5650",
"< c #5C5F59",
"1 c #645640",
"2 c #6C5F47",
"3 c #5E635A",
"4 c #6F614A",
"5 c #70624B",
"6 c #626256",
"7 c #686457",
"8 c #6E6957",
"9 c #63655B",
"0 c #65695E",
"q c #69695D",
"w c #7C6E57",
"e c #746D5B",
"r c #76715E",
"t c #7A725F",
"y c #666B61",
"u c #6B6D62",
"i c #6D7165",
"p c #6F7368",
"a c #717366",
"s c #7C7563",
"d c #7D7865",
"f c #727569",
"g c #797769",
"h c #77786C",
"j c #7B7B6D",
"k c #7D7D71",
"l c #817663",
"z c #837965",
"x c #827D6D",
"c c #897F6B",
"v c #817F71",
"b c #7F8073",
"n c #81806F",
"m c #848374",
"M c #8A8675",
"N c #8C8877",
"B c #8A8778",
"V c #8D8A7A",
"C c #928B76",
"Z c #938E7C",
"A c #95917E",
"S c #9A937E",
"D c #928F81",
"F c #969281",
"G c #9B9684",
"H c #9D9885",
"J c #9E9B89",
"K c #A09783",
"L c #A19A85",
"P c #A49D8A",
"I c #A89F8B",
"U c #A7A08C",
"Y c #AAA28E",
"T c #AEA592",
"R c #AFA995",
"E c #B0A793",
"W c #B4AA95",
"Q c #B8AD97",
"! c #B6AD99",
"~ c #B8AF99",
"^ c #B9B19C",
"/ c #BDB5A1",
"( c #BFB8A2",
") c #C0B59F",
"_ c #C1B7A2",
"` c #C2B8A3",
"' c #C8BEA7",
"] c #C7BCA8",
"[ c #C9BFAA",
"{ c #CBC2AC",
/* pixels */
"`````^^^^^^^^^^(```]/](]((](/((`/]//_////]/]___________]^///^/^^^/////^!/______]//]]_________]/___]__`(`((]//]/]//]/_]___]/]//]/",
"```^/~^^^^^^^^^(`_((]/(/]__/](((////////////________]______^/////^//_///________]//____/____________](``/]/](]]//]](______]]/]]]",
"_``/~^^^^^^^^^^^(```/]__/]/]`]_^]///^/^^////___]_]______///^^^^^^/!//^^/_]______/]]/_]/////_(__]]__/]//`////(/((](//________////",
"(RYAkkkkbjbjjjjbkmmmmBmmvmvmmmvvbbkkkkkkkbkkmmbmBbbbbvvvvkvvkkkkkkkkkhvkbbbBmmmmBbbbmmvbkbvvBvvvmmmmbmvmbBBBbBbBbbBbbbbbbbbmDT//",
"/J]{[]]]{`''][[{[[[[[[{{[[[[[[[[]]]]]]]]]]]]]]][{[[][[[]]]]]]]]]]]]]]]]]]][]{[[[]{{]{]]][][[[[][][[[[[[[]{{{{{{{{{]]{][[]]{{{{T/",
"^H^^^^^^^^~^^!^^/^^///(`]_(_//^^^^///^!/^/^^^/^^___/^^^^^^^^^^^^!^^^^^^^///^/_//^^/^^^^^^^^^^^^^^/^//^^^^///{(((]//^^/^^///]]/J/",
"^H^^^^^^^^^^^^^^~~~///(`(/^//^^^//!/!//!^/!^^^^^//^^^!^^^^^^^^^^^^^/^/^^^/^^^^^^^^^^^^/^^/^!^^^^^^^^^^^^^////(////^/^^^^//////J/",
"^PV3hhjjjhhhhhhhkkkkkkkkkkkkkkkkkkhkkhhkkhhkxhkkhkhkhxhvhhkvhxhhhhhhhhhhhkkkkkkkkkkhkkkhkkkkkkkkkkkkkkkkkbbbbbkkkkhhhhhhhhbb<DR/",
"^!TmPPPP,=;=**,==,,==,,,,;;;;;,;==,=,==,,=======,=,=*=,=,=,,;;****=====**,==,=,,,,,=,,,,,,,,=,,,,,,;,,;,,,,=,,,,=,,=,=,,JRTTb!^/",
"^^^A!W~RyWWE!!^!^!!!^^^^^!^^^!^!!!^^!/R!^^^!/!/W!!^^!!!!!!!!!WD!RJRR/!!R!^!!^!^!R^R^!!!!!!!R!!!RR^!!!!!!!^^^^^^R!!!!R!!y!/!^D///",
"^^^F^^^~y~WW^^^^^^^^/^^^/^^^^^^^^^^^^^^^^^^^/^^/^^^^^^!^^^^^^^D^/JT^^^^^^^^^^^^^^^^^/!^!/!^^/^^^^^/!^!^^^////^^^^^^^^^^y^^^^D/]/",
"^^^F^^~^uW!^^^^!^^^^/^^^//^^^^^^^!^^^^^^^^^^^^!^^^^^^^^^^^^^^/J^/JT^^^^^^^^^^^^^^^^^!/!//!^!^^^^^^^^^^^!^//!R^^^^^^^^^^p^^^^J//]",
"^^^F^^^^u^^^~/!/^^^^/^^^/^^^^^^^^^^^^^^^^^^^^^^^^^^^!^^^^^!^^^J^/PR^^^^^^^^^^^^^^^^R^^^^!^^!^^^^^^^^^^^^^^^^^^^^^^^^^!/u^^/!J^^/",
"^^~F^~^^u^^~^~^^^^^^^!/^^/^^^^^^!^^^^!^^^^!^!^^^^^^^^^^^!^^^^^D!!JR^^^^!^^!^^!^^^^^^^^^^^^^^^^^^^!^^^^^^^^^^/R^^^^^^^^^y^^!^G^^/",
"^~^D^^^~i^^^^^^!^^^^//////^^^^^!^^^^^^^^^^^^^^^^^^!^^^^^^^^^^^D/^PR^^^^!^^^^^^^^^^^^^^^^^^^^^^^^^^^^^^^^^/^^^^^^^^^^^^/u^^^^G^^^",
"^^^F^^^~u^^^^^!/^^^^//////^^^^^^^^^^^^^^^^^^^^^^^^^^^^^!^^^^^^J!^JT^^^^^^^^^^^^^^^^^^^!^^^^^^^^!^^^^!^^^^R^^^^^^^!^^!/!y^^^^G^^^",
"~)~D^^^^u^^^^^^^^^^^_``_//^^^^^^^^^!^^^!^^^^^^^^^^^^^!^^^^^^^QG!^JT^^^^^^^^^^^^^^^!^^^^^^^^!^^^^^^^^^!^^^^^^^^^!^^!^^^^u^^^^D^^^",
"^~^D^^^^i!^^^^^^^^///`///^^^^^^^^^^^^^^^^^^^^^^!^^!^^^^^^^^^^^G^^JT^^^^^^^^!^^^^^!^^^^!^^^^^^^^^^^!^^^^^^^^^^^^^^^^^^^^u^^^^G^^^",
"^^^F^!^RwN^^^^^^////_]__/^^^^^^^!^^!^^^^^^^!^!^^^^^^^^^^^!!^^^G!^PT^^^^^!^^^^^^^^^^^!^^^^^^/^^!^^^^^^^!^^^!^^^^^^^^^^^Ewc^^^G^^^",
"^^!F^^^U5z!^^^^^^//]____^^^^^^^^^^^^^^^^^^^^^^^^!^^^^^^^^^^^^^K!^JT^^^!^^^^^^^^^^^^^^^^^^^!^^^^^^^^^^^^^!^^^^^^^^^^^^^Y4x/^^G^^^",
"^^^D^^^U5zW~^^^^//___]_/^^^^^^^^^^^^^^^^^^^^^^^^^^^!^^^^^^^^!^G^^JT^^!^^^^^!^^^!^^^^^^^^^!^^^^/^^^^^^!^^^^^^^^^^^^^^^^I4l^^^G^^/",
"^^)D^^^U5l!^^^^!//___(_//^/^!^^^!^^^!^^^^^^^^^^^^^^^^^!^^^!^^^D^^JT^^^^^^^^^^^^^^^!^^^^^/!^^^^^^^^^^^^^^^^^^^^^^^!^^^!I4z^^^G^__",
"^^~D^^~Y5z~^^^^^/_]____//^//^^^^^^^^^^^^^^!^^^^^^!^^^^^^^^^^^^G^^JT^^!^^^^^!^^^^^^^^^^^^!/^//^^/^^^^^^^^!^^^^!^^^^^^^^J7z^!^D^/_",
"/~~F^~^Y1s^^^^^^/_/___]_/]/^^^^^^^^^^^^^^^^^/^^^^^^^^^^^^^^^^^G!^PT^^^^^^^^^^^^^^^^^^^^^^!^^/^^^^^^/^^^^^^^^^^^^^^^^^^T>l^!_J^^_",
"^^^F^^^Iwc^^^^^^^_````__/_```(^^^^^^^^^!^^!//^/^^/^^^^^^!^^^^^K!^PT^^^^^^^^^^^^^^^^^^^^!^^^^^^^^^^^^^^^^^^!^^^!^!^^^^^Utx!^^G^__",
"/^^G^^/I4z^^!^^^`/`__```]_/```^^^^/^^^^^^^/!!!///!^^^^^^^^^^^^D!^JT^^^!!^^^^^^!^^^!^^^^^^^^^^^^^^^^/^^^^^^^^^^^^^^^^!^Y5l_^^G___",
"^^^G^^^I4z^^^^^^/``_````/((`]_^/^/^^^^^^^^/^^////^^^^^^!^^^^^^D!^GT^^^^!^!^^^^^!^^^^^^^^^^^^^^^^^^^^^^^^^^^^^^^^^^^~W^I5l!^^G^__",
"/^^G^^^I2z^^^^^^``(``_``_](`__^/^/^^^^^^^//^////^!^^^^^^^^^^^^D^^PT^^^^^^^^^^^^^^^^^^^^^^^^^^^^^^^^^^/^^^^^!^!^^^^^^^~I4l)^!G___",
"__/K^^^I2z^^^^^^```````_______^^^^^^^^/^^^/^///^/^^^!^^^!!^^^^D!^PE^^^W^^^^^^^^^^^^^^^^^^^^^^!/!^^^^/R/^^^^^^^!^^^!^!^P4l^^^G___",
"/_/G^^^TOs^^~^^)_`````(`__]__`_//^/^^^^^^^/^^/////^^^^^^_!^^!^K!^PT^^!^^^^^^^^^^^^^^!^^^^^^^!/!/^^^///^^^^^^^^^^^^^^^^YOg^^^J]__",
"__/G/^^^yE^^^^~^__`_``_`]______~//^^^^!^!//^///^//!^^^^!)!^^)^D!^KT^^^^^!^^^^^^^^^^^^^^!^^^^^/!!^^R/^/^^^^^^^^^^^^^^^^^9W^^)K___",
"_`_G!^^^i^^^^^~/_```]___``____^)/^^^^^!/^^^/^^^^//^^^^^^!^^^^!G!!PT^^^^^^^^!^^!^!^^^^^^^^^^^^!/!^^^/^^^^^^!^^^^^^^^^^^^u^^^_J___",
"___H^^^^p^^^^^^^/](______]((]`/^^^^^^^^^^^^)^^^^/^^^!^^^!^^^^^D!/JT^^^^^^^^^!^^^^^^!^!^^^^^^^^^^R/^^//R/^^^^^^^^^!^^^^^y/^^/J]//",
"___G^^^^p^^^^^^//_____/]__]___^//^^^^^^^^^^^!^^//!^^^^^^^^^^^^G!^JT^!^^^^^^^^^^^^^^^^^^^^^^^^^^^^^^^^//^^^^^^^!^^^^^^^^y^^//D]/]",
"`__G^^^^p^^^^^^//]]__///__((__^/^^^^^^^^^^^^^^^^^^^^^^^^!^^^^^G!^JT^^^!^!^^^^^^^^^^^^^^^^^^^!^^^^^^^^^R/R/^^/^^^^^^^^^^y^^^/J///",
"_`/H^^^^p^^^^^^^/__/]]_]]______^^_^^^^_^^^^^^^^^^^^^^^^^^^^^!_D!/JE^^^^^^^^^^^^^^^^^^^^^^^^^^^^^^^^^^^^^^^^/^/^^^^^^^^^p^^//D]/]",
"`/)G^^^^u^^^^^^!//]//]]_/]]_/_``__/^/`^/^!^^^!^^^^^^^^^^^^^^^^D^^JW^^^^^^^^^^^^!^^^^^^^!^^^^^^^^^^^^^^^^^^^//^R^^^^^^R^y!///J/]]",
"`/~G~^^^p^^^^^^/]//]]((__/_/__`____`__//^__^/^^^^^^^^^^^^^!^^^G^^JE^^!^^^^^!^^^^^^^^^^^^!^^^^^^!^^^^^^^^^^R//^/^^^^^^^^p^^/!J///",
"`/^H^^^^p^^^^^^//](]//]/___]]```_```__^^^/^^^^^^^^^^^^^^^^^^^^D^/JE^^^^^^^^^!^^^^^^!^^^^^^!^Q^^^^^^^R^^^^^/RR///^^^^^^^p^^//D]]/",
"`//G^^^^i^^^^!^_/]((/]/`]/__``//``____^/^^^^^/^^^^^!^^!^^^^^!^J^^JE^^^!^^^^!^^^^^^^^^^^!^^^^^^^^^^^^/^^^^^^//^R^^^^^^^^y^^//J/]/",
"(_/G/^^~i^^^^^^^___`````````````______//^^^^^^^/^^^^^^^^^^^^^^G^^JE!!^^^^^^^^^^^^^!^^^^^^^^^Q^^^^^R/^^^^R^/^/^^^^^^^^^^p^^^^G]/_",
"__/H~^^^p^^^^^^^`_``````(``)```^]____/^^^^^^^!^^^!^^^^^^^^!^^^G!^PE^^^!^^^^^^^^^!^^^^^^^^Q/^^^^^^^^^^^^^/^^^//^^^^^^^^^p!^^/G/__",
"_^/G^^^^i^^!^^^^(_`_```_````````______/^^^^^^^^^^/^^^^^^^^!^^^F^^JE^^^^^^!^^!^^^^^^^^^^^^^^^^^^^^^^^^^^^^^^^/RR^!^^!^^^u^^^^J___",
"/^^G/^^^i^^^^^!^(``````__``````______^^^^^^^^^^^^^^!^^^^^^^^^^G!^PE^^^^^^^^^^^^^^^^^^/^^^^^^^^^^^^^^^^^^/^^^///^^^^^^^^u^^^^G___",
"_^^G^^^^u^^^^^^^/____`(``````__`__//^/^^^!^^^^^^^^^^^!^^^^^^^^G!^JT^^^^^^^^!^^^^^^^^^^^^^^^/^^^^^^/^^^^^^^^R//^^^^!/^^!u^^^^G___",
")^~F^~^^i^^^^^^^^/_((``()``(_`_`___/^//^/^^/^^^__^^^^^^^^^^^^^F!^JT^^^^^!^^^^^^^^^^!^^^^^^^^^^^^^^^^/^!^R/^^^^^^^^^!^^^u^^^/K/^/",
"_^^H^/^^i^!^^^^^/~_/^^^``)``_`___/Q/^/^^/^^^^/^^^^^^^^^^^^^^^^G!/DE^^!^^^^^^^^^^^^^^^^/^^^^^^^^^^!^///R/////^/^^^^^!^^^u^^^^G^_/",
"_~~H^^^^y^^^^^^^~~~^^^^````___(_/^//^////^^^^^^^^^^^^^^^^^!^^^D^^IE!^///^^^^^^^^^^^^^^/^^^^^^^^^^^///^/^R/R/R^R/!^!/^^^u!^^/D^//",
"^~~G~^^^i^/!^/!/!!^!/^//`````__^^^//^/^^^//^^^/^^^^^^^!/^^!^^^G!^JE^IWEEI^/!^^^!^)^^^^)^^Q)/^^^^///^/^//^^^^^^^^/^!/^^^y^^^^D///",
"`^~G~^^^i!!^^!!/!/!!!///__`___/~^^^/^__^/^^^__^^^^^^^^!!^^^^^^F!^JT^lllll^!^^^!/^^^^^^^^/^/!^^^/^/__/^/_/^^!^^^^!^/!^^^p^^^^J^^^",
"_^^D^^^~p/^^!/!!//!/^^//_(``)(/(/^^__^_^/^//___^^^^^/!/!^^^^^^F^^JT^<ll7<^^^!!^^^^/Q^^^^^^^^^^^/_]____///^^^^^^^^^!!^^/p^^^^D//^",
"~~^D^^^^u^!^/!!/!!!/!^//`_((^^^^_^_//__^!///___^^^^!!^^^^^^^^^G!^KT^c&>*B^^^//^^^^^^^^^^^^!//^^/_/_]___/^/^^^^^^^^!/^^!p^^^^J^^^",
"^^^F^^^^p^^^^^^^^^^^/^/(`(/^^^((/^/_^^/^^/^/////^^^^^!/!^^^^^!G^^IT^!JvI^!!!!^^!/^^^^^^^^^^^_^/____]____/^/^^^^^/!^^^^!p^^^^D^/^",
"^^^G^^^^u^^^^!^^^^^^!^(/_^^^^^^^^^//^^!Q/^//////^^^^^^!/^^^!^^GQ^JE^^^^!^/^/^^!/^^/^^^^^^^^^/^____``]____//^^^/^/^^^^!^p^^^^J/^^",
"^^^G^^^^u/^^^^^^^^^^!^^^^^^^^^^^^//^^/Q^^^/((///^^!^/!^^^^^^^^GQ^IE^^^^^^^/!!//!^^^^^^!^^!//^/__`(``___]_///^/__!/^^^^^p^^^^D^/^",
"!^^G^^^!u^^^!^^^^~^!R!^!^^^^^^^^^^^//^^^^/]///!/^^^/!/!^^^^^!^GQ^KT!^^^^^^!^^!!/^^^^^^^^^^/^_/__````_____///)___/!^^^^^p^!^/J^^!",
"^^^G^^^^y^^^^~^^^^^RWRQW^^^^^^^^^^//_^^^^^__^/^//^^^^^^^^^^^^^GQWIE^^^^^^!^^^^^^^^^^^^^^^^^__///`/```_`__]______^^^^^^^p^^^^G/^^",
"^^^G^^^^u^^^^^^^^!^WWEWE^^^^^^^^^^^///^^^__/^^^!^^^^^^^^!!^^^^DQ^KTQ/___/^^^^^^^^^^^^^^^^^///^////__````________^^^^^^/p^^^^G^/^",
"^^^G^^^^u^^^^^^^^^^WRWWQ^^^^^^^(^^^/_^^^//__/^^^^^^^^R!!^!!!!QD!^KT)^EKI/]!^^^^^^^^^^^^^^^^_/^/_/_/````/_]______/^^^^^^p^^!^D/^^",
"^^^D^^^^u^^!~~/~^^^!WRWW!^^^^^^^^^^/^^^^^__//^^^^^^!^^!^R!^!)QDWWKT)SllDI/^W!!^!^W^^^^^^^W!^^^^/^^//```/________//^^!^^p^^^^J//^",
"^^^G^^^^fY~~^^^^^^~WRWW~Q!!!^^!^^^^_^^^/__///^/^^^^^^!^^^^^!^^DWWKE_lqelllqlllllle^^^^^^/^^^^^^/^^^^`_`/______///^^^^^!lI^^/J//_",
"^^^G^^^Y5z^^^~^~^!^WRWWWW!W^^^^^^^^_/!//^/__//^^^^^^^^^^^!^!^!D!QKY/z77><xxkxxhlxv^^^^!^^^^^/////^/^/`//_]____/_^^^^/^I5z^//J^__",
"^)~K^^^U5z!^~~^^^^^RWRWWW^!!^~^!^^^^^/^^__/////^^^^^^^^!^^^^!!BR^GY/Ql>lQ^^^^^!^^^^^^^^^^^^//^////_`////_______//^/^!^Y5l^^^J/__",
"^^^G!^^Y5z~~^^^^^W!RRRWWW^Q!^^^^^^^/^^^^/_^^//^^^^^^^^^^^^^^^!BRWKYQ))_)//^^^^^^^^/^^!^^^^^^/^^/^//(///~/______//^/^/^T5z^//G___",
"^)~G^^^U2z~!~~^^^WQQWWWRR!!!!//!^^^/^^!^^/^^^/^^^^^^^^^^^^!W~!ZEWKI^QQ^Q^^^^^^^!!^^^^^^^^!^^//^/^/_/__^/_```_`((/(/~^^R5x^__G__`",
"^/)G^!^U4z!~~~~^^W~WW~WW!/!!/!!/^^^/////^^/^^^^^^^^~~^~^^!!QQQvEWKYW^W^W^^^^^^^^^^^^^^^^^^^^^^/_//__/////````__/^`/~/_W2z^^_G__`",
"///G^^^Y5x~^^^^^^QRWRWWW!^!/!!!!^/(]///^^^/^/^^^^^^^^^^^^^Q!WWBEWGYQ^^^Q^W^^^^^^^)^)^^^^^^^^^^///^//////`_``____(((^^/W5x//_L___",
"___H^^^P2z^^^^^^^^QWWEW!!^!/!//!^/((//^//^^^^^^~^^^^^^^^~^WQ!QBWWDIWWW^^WW^^^^^/^^^)^^^^^^^^^^^^////_/^/_`````_((`(/(/W5z)^_H`__",
"__/D^^^Y5z~^~/~^^~QRRW^!^^^^^^//^///^^^^^^^^/~~^^^^^^^!^^^!!QWZEWDIW!^^^^^W^^^^/^^^^^^^^^^^^^^^/^^//////``````(``(/`/`T5z~//H/``",
"__^G^^^U5z~^~/~^^W^QEW^^^^^^^^^/^^//^///^^/^^~^^^^^^^^^^^^^~QWZEWGI!!WQ^^^^^Q^^^^^^^!^^^!^^!^^^^^^^////_``````/``//``_E5z//_H```",
"`_/H^^^U2z~~^^^^^~^~R^^^^^^!/!^!^^//(](^///^/^^^^^!^^^^^^^!WWWNWWDIWWW!WQ^^^!^^!~^^^^^^^^^^^^^^^////_/_//_```//(`/_`/_T2x_/`H```",
"`_`H^^^U1t~/~~^^^W~WR!^^!^^^^///^///(((/////(/^~//^^!^^^^^!QWWZEWDIWWW^W!^^^^^^^~^^^^^^^^^^//^/^/!//__/__```//``//```/Y#t__/G_(`",
"`__F~/~W=F~^~~^^^~~WWQ^~~^^^^/^^^//((((/^^//(/^((/^^^^R^^!!^!WZEWDIQWEW!^W!Q^^^^W!^^^^^^^^^^/^^//^^_^///____/(`(`/``((~-F_^`L`_`",
"__)D~~^^u~~^~/~^~!~WWW~^~^^^^~^^^^/^/(((^_`_`___(/^^^^!^^~!~~WZWQGI!!WWW!Q^QQ))^^!^^^^^^^^^^^^__/^^/^///__(/``/(/__`(((a__)_H__`",
"_/~Z~/^Wu~~~~~/^^^^WWWQ~Q^^^^^^~^^///(((^(``__(_(_]/^^^^^^^^^WDW!DI!!WWWQ!^^^^^/^^^^^^^^^^///^/)^^^//^/_////`/__`(``/((p))__H``_",
"`_(D~~~!y^^~~~~^~~^WWWWW^^^^^^^^^^^//]/(_(^```_(((//^^^^^^~~~QZQQKIWQWE!Q^^^!^^^^^^^^^^^^/^^^//)/^/^^^_////((/_/`((^/~/p_))_H_`_",
"``/Z^/~~y^~~WW^^^^^WWW~^^^^^^~^~^^/////(`(^(___`/```/^^^~^^^QWDW!DIWWWEE!!)QW^Q^^^^^!~^^^^^//)!/^^/^^^/////_/^___``/^^^p^`((G``_",
"~~~D^~W~u^^W~~^~^^~WR~^^^^^^~/~~^^^^///(`^_^`___``__//^/^~^^~WZEWKIW!EWWW!^^^^^^^)^^!!^^^^^^^)^^^/^^^/_//^__^///_//^/^^f^^/(H`)_",
"~^QBWWW~yW~QWW^^^~^WWQ^^^~^^^^~Q^^^^!//^`_```_`___```/`(`/^^~WVWWKI!W!EEW)^^^!^^~~!W!Q!^^^^^^^)^^^^^/]//^//^^_///(~/~^^p^^^`G```",
"~~QNWWWW9WQWW~^^^~^WRW^~^^^^^~QQ!^!/////_^```__`_```````__^^!!ZW!KIW!WWW!!^^!!!Q^!!QWW!^^^^^_^/^^^^^]/_/^_///_^^/^^~^^^p^(^`H```",
"^~~NWQEE7~QWWQ^^^^^WW!~~~~^~~~^W^!/!!/_/(_```````````___`(~~QWCWWDIWWWWW!^^!^!W!^!WWWWWW^^^^_^^/^)^((```^((`^^^^~^~^^^^p^^^/J___",
"~/~V^^QW0WWQWW^~^~^WWQ~^~^~~~W~W!^///_^____`````_``_``((`^~^QQNWEKYWQWWWQQW))!QQ!!WWEWWW!^^^^)_^^^^_((_^^^()^^^^^^^^^^!p^^/(J/__",
"/~/Z^~~QyQWWWW^~^!~WW!~~^^^^^QWW!!^/^^^/_/__/(``__``^`(_(^^~WWZEWDIWWWWWWQWW!^^^WWWWWQWWW!^^^_^^^/^_(_/^(()^^^^^^^^^^^^p^^^(J__]",
"///F^^~~y^EWWQ~~^^~QWW~~~^^~^WWQ!!/!^^!/__(_///`(`````((/^^~WWBEWDIWWWEWWWQ)!^!^WWWWW!WWW!^^^_^~^^^((_(^^({^`^^^^^^^^^^u^^/(G`(`",
"/(/D^~~~qWWQWQQ~~^~WWWW~~W~^~WWE!/^^///////_///(````__(_`~~/WEBWWKIWWWWW^!^!^!^^QWWWW)EWQQ!^^^^^^^^)_^^^^`(/^^^^~^^^^^^u^~//J_`_",
"//~D^^^^uWWQQW^~^!WWWW~~^~^~~WW~W!^^^/__////^///````__(`(/~~QWBEWDIEWWWW^!^^^!^^))WWW!WEQ~W~~^^^^^^)(^^^(``^^^^^^^^^^^^y^^/`G`__",
"~^^F^^~WyWWWWW^^^!WWWQ~WQ^^WQQWWW!^^^/^////__//(^`(`(`(_(/~^WWNWEDIWWWW^^!^!^^^^W)WEWWEWW!W^^~^^^~^^^^^^_((~^^^^^^^^^^^i^^(`H`__",
"^^^D^^~~yWWWQWQ~~QWWWQ~Q^~~Q~WWW!W^^//^^^//__^((_`____``/~~WWWZWQDIWWWW!^^^^^^^^)W)!W)QW!~!W~^~~^^^^^^^^_((^^^^^^^^!!^^y^/`/J(]_",
"^//F~/~~uWWWWEW^^~WWWWW~^^^~WW~~~~~~/~^//(``///(`((_`(`(^^^WWWVWWDIWWWWQQ^/^^^^!!)WWWWWWWWQQQ~~~^^^^^^^^`)^^^^^^^^^^^~^u^///J`/_",
"//~D^~!~y~WWWEW~~~WWWQQ~~^^~WWW~^~/~~(/^~/``///(`(`````_^^QQWWNWWDIWWWWQ)Q^^^!!!!!WWWQQWWW~!WQQQ^^^^^^^^`)^^^^^^^^^^^^^y^^//J(]_",
"~~/D^~~WqWW~WWW~~)Q~QW~/^_^^^^^^^^((//_`((```/```]```[`(^^QQWWVEWZIWWWWQ^_/)_^^/))))~^^^~)~~QQ~Q^^^^^^)^^)^^^^^^^~~^~~~u!^^^H]__",
"^^~D~~WWyWWQWEQ^______]]'[]__[]`]`[[[[[][[[{[[[[{{{{{{{['^QQWWBWWDIWWWWQ]]]]]]_]________________)`'``'`'){`]'`'`^^^~~~Wy^^~^J/__",
"^^^BQQWW9QEWWEW_<99639990y099y9y99yuyayiiaipuyuyppfpffuy[(WWWWAWWKIEEWW)7quuuuuuuuquyuq99979yuuy0quuauiiuy0iuu00`)^^~W~u/~~/G```",
"^/^BWWWWyWWWWWQ_gSGKHHLJLLPLHJLLLJYPYYYTPUTUTTYTURURRRPm'^~W!WCWWDIWWWQ]lKIIIIPYIPPJLPPKKKKKKKPLLLUYYYYUUYULUUHn`^^^~EEu~^^~G```",
"/~/VWWWEyWWWWWQ_BYWQWWWW~^~/^^^^^^^/^`((`/(](/(((]]((_~Z[_~~^!NWWDIWWWQ)BT^^^^^^^^^^^^^WWWWWW!~^^^^^^^^^^^^^^^YV)^^~WWRy^^^/G/``",
"^//BWWWW0WWWWQ~_iNZGDDDFGGFFFGFFFFFGJJJPJHPJPJPPPJJPPLFg[^~^^^A!WKEWWWQ]fDGGGGGGKGGGGGFDGDDZDKGGGGHHHHHHHHGGGGAa'^^~WTTy~^~~G/((",
"///VRWWWyWWWWWQ]9vZDVZAVNZVDZVVVBVZFAFFFHGGGFFGGGGJGHFVp{^~^^~AW~KTWWQ)`yVDGZZZDSAAAAAANVVBBZAZAZZFZGGAGSSZAAAM0`^^~WIT9~~^~G/(/",
"^~/VWWWW3EEWWW)_vKIYTRRTETTTRRRRRRRR~R!RR^^!RR^RR^^^~!YB{)~~^^AWQKTWWWQ)xPRRWWWWWRRRRWYTYTYYYTYRTERWWWWERRRRETLm`^~WWTWq~~^~H`_`",
"~^^BW~WWyEWWWW^_MIWQ!~~~^^^^^/^^^^^^^(((((((((^(/(((((RZ{^^^^~AQ~HTWWW))NT~~^^~^^^^^^^^W~WQ!^^^^^^^^^^^^^^^~^^TM)^~WWWWu~^^^H^__",
"/!!V~^WWyWEWEW^_uNDDGGJFFGFGDGGGFFGHHGHFHUJJUJJJJUJUJUDf{)^~^^AQ~HYQQQ)`aNGJGGGGGGGGGGGAASASGHGHGGGHGGGHGGGGGHVi`~WWWWW8~~^^H/_(",
"^~~MQWWQyEWWQWQ_yMNCDZZBVVVNVVDVVVZVVVZFFFGFGGGGFGGGDFVi'^^^^^A!~HE~~^^`yMZZDZZDAAAAAZVVAAMAZAZAZAZZAZAFAAAAAAM0)^WWWWE8~^^^H/__",
"^^~NQWEIwcWWWWQ_jKIITTTTYTRTRTRRRRRRRRR!!^!!!!!^!!!R!RUm{^^^^^A!^PTQ^^^`mLRWRREWRRRTRRYRYYYURRRRWRRTWWWWRRRTTWSb))WWWWIlC^~^G___",
"^~QmEWWP4lWWQEQ_MIQEW~~WWW^^^^!^^^^^^~^/////^^(((^^^^^TZ'^^^^QA!^LT!~^^`VT~~~~^~^^^^^^!^^QW~^^^^^W~~^^^~^^^^W~YN)^QWWWK4l~~^G(_(",
"~^QvQQWP2lWWWEQ_yvZZZFZZASFDFFFFFFGFHFGGFFJJGFJJHHGGGGZp`^!^^^A~~LE~~^^]pVHJGJHGGHGGGGGGASSGGFGGGFGGGGHHFHHSSSNi`^QWQWI4x~^~H_`^",
"^^WB!WWK5lWQWWQ_9bNNNNNCNNVNBVVVVVZZZVZAFAAAAZFFGAAAAABu`^^^^^SW^HT!!~/]uMFGAZGFAZAZAAAZZZZAZASGAAAZDZFGZZZZAVm9`^Q^~^I4z~~/H/_/",
"/~EmWWWP4lWQWWQ_dSUYYYYYTURYYTTTTRYRRRRRWRRRRR!!RWRRWRUm{^^^^^C!^HT!~^^]MPWEWWWWWRTRTTTWTTTTRRRWTTTTRWWWRTTTTTUb`QQQ~~U4z~~^H(_/",
"~WEMWWEP1lWWWWQ)bURRRR!RW^^^^^^^^!^^^^^~^^^^^^~^^^^^^^TA{)^Q^WV!^PT~Q~^]VR^^~^^^^^^^^^^^^!^^^^^^^^^^^^^^^^^~~~YN`^Q^^~Y1l~^/H`__",
"^QEmEWWLwzEWEWQ_0nVZAAZAASSFFFFAFAASGSFHGGHFGHHHFHGFGGAa)^^Q!WAW^GT!Q^^]pZGGGGGHGGFGFGGGSGGGSHGGGGGGGGGGGGGGHSVi))QQ^^Uwc~^_H``_",
"^WWMEWWP4lWEWWQ_3hmMNNNNVZCVVNVNBBVAZAAAZAZAAAZAAAAAAAVu{^^Q~WCW^KT^^~^`0MZZFVZAVZVAZVVAAAZAAAAAAZAAZAAZAZACAAmu)^^Q^^U4z^^`G___",
"~WWmWWWL2lEEWWQ_gSUYYTYYYYTTTUYYYYYWTTRRRTRRRRRW!W!RWRUm')~WWWVW^KT^^^^'mUWRWRTTREYTTTYYYTYTERTRTRYREWRRWYRRTRUm')^^^^U4z^^)H_``",
"~WWmWWWP4sEWWWW_nYEW!!QR~Q^!~R!RRW!^^^^^^^~^~~^^^^^^^^RB)^QQQWCW~GY^~^^`VR^^^^^^^^^^^^^QQ^^^^^^^^^^^^^^^^^^^~^TV'^^^^^U4z^^)H__)",
"^~WBREWL2lEEWWQ_0mVAVAZAAZAZAZZAAASGFFGHHGGGHHSHHGGHJHAp{^^QWWCWQHT^^^^'pFGGHGGHHHGHSGGGGGFHGFFHGGGGGGGGGGGFGGZi'^~^^^U4l^^^H(``",
"^QWBRWWP.sEWWWQ`3nBMMMMNNNBBCBBBNVVAAZASSAVASAASGAAASSVu'^QQWWAEQHT^^^^{qNAAAAAAGFFFVAAAAZZZAVAAAACAAAASSSAAAACu`)~^^^T+bQ^^S(((",
"~~~BWWEE>YEWWW^`gHYUIUYUYYYYIIYYYTYERRWE!WRWWE!RWERWWEUn'^QWWECEQHY^^^^{mYQQWEWW!!!!TTEERTEWEEYWRERRTRRW!EEERYUn'^^^~~~9WQ^)S(((",
"^^WBWEEW7WWWWW^)bGUIUIUUUIPYIIYIUUYTRRERETYEWR!EWRRRRYLM)^~QWQCEQHT^^^^{NURE!R!R~~QETTTYTREWYTTYTTUYETTRRRRRYRUM'^^~^^~uQ^^^S^((",
"^^^BQWER0WWEWEQ)0q070uq0uqyuyquqy0eyuaaffaiaaaaafafafaii')QWWWCWWHY^^^^'iiffffffffffppppaffaipfaauiaaabrgafirauy')^~~~^u~~^^S)(`",
"QQ^NQWER3WWWWWW~^``))`(`````_]]]('){){{{{{{'{'{{{{{{{`'))^~WWECWWGY^^^^^]'[[[[{{{[[{]]]]''{'`{''{{''{''{{{{'{{'{)^~QQ~~u^^^^S^`(",
"~^QNQ^WR3WWRWWWQ~^^!Q~WQQQQ^~~~^^~^^^^^^^^^^)))'``^~))~^QQWQWECEWFY^^^Q^~^(/(```_(^^)^^/^(^^)^(`^^^^)`^^^)))^^^^^~QW^~~y^^^^S(((",
"~Q^NQWEW3WWWEEWWWEWWRRWWWWWWWWQQQQ~Q^^^^^^^^^^)^^^~^^^~QWQWWWWMEWFPQ~QQQW^/~~/(((^^^~^^^^^^^^^^^^^^^^`^^^^^^^^~^QQQW~^^y~^^~S^^{",
"QQQNWQWR0WEWWWWWWWWWEWWQWQQWWWWQ~W~~~~~^^^^^^^^^`^^^~~~QWQTYYYnYWCLWEEEWWW~~~^((/^^^^^^^^^^^^^)^^^^^^^^^^^`)~^^^Q^QQ^~~r^^^^A^(^",
"WW~CRWER3ETTWWEWWWWRWWWWWWQQWEWQQE~~^!^^^^^^^^^^^^^^~WWWWYEETYnEEAUEWEWWWWQ~~^__(/^^^^^^^^^^^`^^`^^^^^((^^{^^^~^~QQQ^~~y~^^^C(((",
"^^~NWWRW6WWWEWWWWWWWEEWEWWQ^Q^WQ^Q^^~!^~^^^^^^^^^^^^^~QWWEWWETMTEAURWWEWWWQQ^^^_(/^^^/^^^^^^^(``'^^^^^^^``^^^^^^~~QQ~^~e~^^~V^^{",
"~~~NEEWW3EEWWWWEWEWREWWWW~~^~~^W^Q~^^^^^^^^^^^~^^^^^^~WQWEWWTECEWAUEEWEEWWWQ^^^^((/`/((^^^((^`(`^^~^^^^()``^^^~~^~~Q~~!y~~Q~A)((",
"^~~C^WWW3YYUUUUIYLULUUYYYYTYYYYYYYTYTYTTTYTTTTTTWRTYEEYUUUUYSYnSUMSLUUUUIITTRTWQ!~WWR!RWR!!WW^QQ~QWRTTRQ!!!Q!RRTTEYTYTT3~~^^A^'(",
"^^^V~WWW%767679699667680707867008979077q7700q8qqiq878q8q77776376667777767qqquqququueuueq0qiqeqiquruuuu8ieqaquu8e888y080%!^^^A^{^",
"^^^mQEWE:CACCACCCCCZCASASSACCCCCACAZSSHSASSSLSSASSGSSSSSSCCSCCMCCNCCCCCAZSSKKSGLLLLLLLLLSLLLUSLLSUSSSUUSLLLLSSSSSSSSSAS3~~^~A^((",
"^^WNWWWE;CACCACCZCZCCCSCACCAZCCCCZAASSSSSSASSSSSSHSSSSSSSCCCCCCNCCCCCCACSSSSLSLLLLLLLLLLSLSLSULSLLSSSUSSSLUSLSSSSSSSAAS3^^^^S^')",
"^WWMWWWW&.............+.++.X...+...XX+XXX+.+XX+XX+X++X++.++++ . +... .XXXXoooXXXooXoXX+X++++@@@++++++++@++++@@+++++++++$^~^^A^{)"
};
