/* XPM */
static char *fc3d7989e4d24a5ab924858cfa9907d47Wzbdr8S3HOLA1CX[] = {
/* columns rows colors chars-per-pixel */
"32 32 7 1 ",
"  c black",
". c #A0A0A0",
"X c gray66",
"o c gray69",
"O c gray72",
"+ c #C0C0C0",
"@ c #D0D0D0",
/* pixels */
"                                ",
"                                ",
"                                ",
"                                ",
"                                ",
"                                ",
"       .               .        ",
"      X                 X       ",
"     o                   o      ",
"     o                   o      ",
"    O                     O     ",
"    O                     O     ",
"   +                       +    ",
"   +                       +    ",
"   +                       +    ",
"   +           @           +    ",
"   +                       +    ",
"   +                       +    ",
"   +                       +    ",
"    O                     O     ",
"    O                     O     ",
"     o                   o      ",
"     o                   o      ",
"      X                 X       ",
"       .               .        ",
"                                ",
"                                ",
"                                ",
"                                ",
"                                ",
"                                ",
"                                "
};
